<?xml version="1.0" encoding="utf-8"?>
<!-- Generator: Adobe Illustrator 21.1.0, SVG Export Plug-In . SVG Version: 6.00 Build 0)  -->
<svg version="1.1" id="Layer_1" xmlns="http://www.w3.org/2000/svg" xmlns:xlink="http://www.w3.org/1999/xlink" x="0px" y="0px"
	 viewBox="0 0 50 50" style="enable-background:new 0 0 50 50;" xml:space="preserve">
<style type="text/css">
	.st0{fill:#7D8393;}
</style>
<g>
	<path class="st0" d="M39.3,50c0.4-1.1,0.5-2.2,0.4-3.4c0-0.3-0.2-0.5-0.3-0.8c-0.2-0.5-0.4-1.1-0.6-1.6c-0.3-0.9-0.5-1.8-0.8-2.8
		c-0.1-0.5-0.3-1-0.5-1.6c-0.1,0-0.2,0-0.5,0.1c-0.7-4.2-1-8.4,0.2-12.7c-0.5,0.2-1.1,0.3-1.6,0.5c-0.1,0-0.1,0.2-0.1,0.3
		c0.1,0.9-0.1,1.8,0.3,2.7c0.1,0.1,0,0.3,0,0.5c0,1.6,0.1,3.3,0,4.9c0,0.4-0.3,0.9-0.5,1.2c-0.5,0.8-1.2,1.5-1.7,2.2
		c-0.3,0.4-0.5,0.9-0.7,1.4c-0.1,0.1-0.1,0.2-0.2,0.4c-0.1,0-0.1,0-0.2-0.1c0.1-0.3,0.1-0.6,0.3-0.9c0.4-0.6,0.9-1.2,1.3-1.8
		c0.4-0.5,0.8-1.1,1.2-1.6c0.3-0.4,0.4-0.9,0.4-1.5c0-1.5,0-3-0.1-4.6c-0.1,0.2-0.1,0.4-0.2,0.6c0,0-0.1,0-0.1,0c0-1.4,0-2.8,0-4.2
		c1.6-0.1,2.8-0.7,3.5-2.1c0.3-0.7,0.7-1.4,0.7-2.3c0-0.8,0-1.5,0.1-2.3c0.1-0.8-0.3-1.5-0.5-2.2c-0.1-0.2-0.2-0.5-0.2-0.8
		c-0.1-0.6-0.5-0.9-1.1-0.9c-0.3,0-0.5,0-0.8,0c-0.4,0-0.7,0.1-0.9,0.6c-0.2,0.4-0.6,0.8-0.9,1.2c0,0-0.1-0.1-0.1-0.1
		c0.1-0.2,0.2-0.4,0.3-0.5c0.2-0.3,0.4-0.6,0.6-0.9c0-0.1,0.1-0.1,0.1-0.2c0.6-0.6,1.4-0.4,2.2-0.3c0.5,0.1,0.8,0.6,1,1.1
		c0.1,0.4,0.2,0.8,0.4,1.1c-0.2-0.9-0.2-1.8-0.9-2.5c-0.7-0.8-1.6-0.5-2.5-0.4c-0.3,0-0.7,0.4-0.8,0.7c-0.4,0.8-1,1.4-1.7,2
		c-0.7,0.6-1.2,1.4-1.5,2.2c-0.1,0.1-0.2,0.3-0.3,0.3c-0.6,0-1.2-0.1-1.7-0.1c-0.1-0.9-0.2-1.7-0.4-2.5c-0.2-1.1-0.8-1.9-1.5-2.6
		c-0.5-0.5-1-1-1.6-1.4c-0.4-0.3-0.5-0.6-0.5-1c0-0.7,0-1.5,0.1-2.2c0-0.3-0.1-0.4-0.4-0.6c-0.6-0.3-1.3-0.5-1.8-0.9
		c-0.6-0.5-1.2-0.8-1.9-0.7c-0.5,0-1,0.2-1.4,0.3c-0.5,0.1-1,0.3-1.4,0.3c-1.4,0.1-2.4,1-3.5,1.6c-1,0.5-2,0.9-3.1,0.9
		c-1.8,0-3,1.5-3.3,2.9c-0.3,1.2-0.6,2.5-0.5,3.8c0,0.3,0.1,0.6,0.2,1c1.2-1.2,2.2-2.4,3.9-2.6c0,0.1,0,0.2,0,0.3
		c-0.2,0.4-0.4,0.8-0.3,1.2c0,0.2-0.1,0.4-0.2,0.5c-0.4,0.5-0.9,0.9-1.4,1.4c-0.1,0.1-0.1,0.2-0.2,0.3c0.3,0.1,0.5,0.3,0.7,0.3
		c0.9,0.2,1.7,0.5,2.4,1.1c0.2,0.2,0.4,0.5,0.4,0.7c0.1,1.7,0.1,1.7-1.5,2.3c-0.4,0.2-0.7,0.5-1.2,0.4c-0.4-0.1-0.8-0.2-1.2-0.5
		C10,25.4,10,25.1,10,24.8c-0.4,0.3-0.4,0.4-0.1,1.1c0.2,0,0.3-0.1,0.5-0.1c0,0,0,0.1,0,0.1c-0.2,0.2-0.4,0.3-0.6,0.5
		c0,0,0.1,0.1,0.1,0.1c0.3-0.1,0.6-0.1,1-0.2c-0.4,0.3-0.8,0.5-0.9,0.8c-0.6,1.1-1,2.3-0.8,3.5c0.1,0.7,0.5,1.3,0.8,1.9
		c0.9,1.8,2.1,3.5,3.5,5c0.7,0.7,1.3,1.5,1.8,2.4c0.3,0.4,0.3,1.1,0.3,1.6c0,0.8,0.2,1.5,0.7,2.1c0.4,0.5,1,0.8,1.6,1.1
		c1.5,0.9,2.9,0.1,4.3-0.5c1.1-0.4,1.9-1.2,2.5-2.2c0,0,0.1,0,0.1-0.1c0.2,1.1-2.4,2.7-5.4,3.4c0.4,0.7,1.3,0.8,1.6,1.7
		c-0.5-0.4-0.9-0.8-1.4-1.1c-0.5-0.4-1.1-0.7-1.7-1c-0.1-0.1-0.3,0.1-0.4,0.1c0.2,0.3,0.4,0.5,0.5,0.7c0.2,0.5,0.4,1,0.6,1.6
		c0.3,0.8,0.8,1.3,1.4,1.8c0.2,0.2,0.4,0.5,0.6,0.7c-0.1,0-0.1,0-0.2,0c-0.2-0.2-0.3-0.4-0.6-0.5c-0.8-0.5-1.2-1.3-1.6-2.1
		c-0.2-0.5-0.3-0.9-0.6-1.4c-0.1-0.2-0.3-0.3-0.4-0.5c-0.5,0.9-1,1.7-1.5,2.5c-0.3,0.5-0.3,1.3-1,1.5c-0.2,0.1-0.3,0.4-0.5,0.5
		c0.2-0.3,0.3-0.6,0.5-0.9c0.2-0.3,0.5-0.7,0.7-1c0.5-0.8,1-1.7,1.5-2.5c0.1-0.2,0.2-0.5,0.4-0.8c0,0,0-0.1-0.1-0.1
		c-1.5-0.7-1.9-1.9-1.9-3.4c0-1.1-0.6-1.9-1.2-2.6c-0.9-1.2-2-2.2-2.8-3.4c-0.9-1.4-1.7-2.9-2.4-4.4c-0.3-0.6,0-1.5,0.1-2.3
		c0.1-0.7,0.5-1.3,0.4-2c0-0.6-0.2-1.2-0.7-1.6c-0.3-0.2-0.5-0.5-0.4-0.9c0-0.2-0.1-0.4-0.2-0.5c-0.5-0.8-0.7-1.6-0.1-2.4
		c0.1-0.1,0.1-0.1,0.1-0.2c0.4-0.6,0.9-1.1,0.2-1.8c0,0-0.1,0.1-0.2,0.1c-0.1-0.4-0.1-0.8-0.2-1.2c-0.1,0-0.2,0.1-0.3,0.1
		c0-0.1,0-0.2,0.1-0.3c0.2-0.4,0.5-0.7-0.1-1.1c0,0,0-0.2,0.1-0.3c0.2-0.3,0.4-0.6,0.7-0.9c-0.3,0-0.4,0.1-0.6,0.1
		c0.2-0.2,0.3-0.4,0.4-0.6c0,0,0-0.1-0.1-0.1c-0.2,0-0.3,0.1-0.6,0.2c0.1-0.3,0.2-0.4,0.3-0.6c0,0,0-0.1-0.1-0.1
		c-0.2,0.1-0.4,0.2-0.6,0.4c0.1-0.4,0.1-0.8,0.2-1.2c-0.2,0.1-0.3,0.2-0.5,0.3c0-0.1,0-0.3-0.1-0.4c-0.1,0-0.2,0.1-0.4,0.1
		c0-1.3,0-2.5,0-3.8c0.2,0.2,0.4,0.4,0.5,0.5c0-0.3,0-0.6,0-0.9c0,0,0.1,0,0.1,0.1C7.3,9.4,7.5,9.2,7.8,9c0.2-0.2,0.6,0,0.4-0.6
		c0.3,0,0.5,0,0.8,0C8.9,8.3,8.8,8.2,8.7,8.1C9,8.1,9.2,8,9.6,8C9.5,7.8,9.4,7.6,9.3,7.3c0.3-0.1,0.5-0.1,0.8-0.2
		C10,6.9,9.9,6.7,9.8,6.4c0.1-0.1,0.7,0.1,0.3-0.5c0.3,0,0.6,0.1,0.9,0.1c-0.1-0.2-0.2-0.4-0.3-0.6c0.2-0.1,0.4-0.1,0.6-0.2
		c0.1,0,0.3-0.2,0.3-0.2c-0.1-0.6,0.2-0.4,0.5-0.4c0.1,0,0.2,0,0.3-0.1c0.5-0.4,1-0.8,1.5-1.2c0.2-0.2,0.4-0.3,0.7-0.4
		c0.6-0.2,1.2-0.4,1.8-0.6c0.3-0.1,0.6-0.4,1-0.6c0.7-0.2,1.4-0.5,2.1-0.5c0.8-0.1,1.5-0.1,2.3-0.1c0.4,0,0.7,0.2,1.1,0.2
		c0.6,0,1.3-0.1,1.9-0.1c0.7,0,1.4,0,2.1,0.3c0.3,0.2,0.7,0.2,1.1,0.2c0.6,0,1.1,0.2,1.7,0.5C30.3,2.6,31.1,2.8,32,3
		c0.9,0.2,1.6,0.6,2.3,1.3C35,5.2,35.5,6.2,36.1,7c0.5,0.7,1.1,1.2,1.1,2.2c0,0.2,0.3,0.3,0.3,0.5c0.3,0.8,0.6,1.5,0.8,2.3
		c0.2,0.6,0.3,1.3,0.3,1.9c0.1,0.7,0.1,1.4,0.1,2.1c0,0.1,0,0.3,0.1,0.4c0.4,0.5,0.5,1.1,0.7,1.7c0.2,0.8,0.2,1.5,0.2,2.3
		c0,1.2-0.1,2.4-0.2,3.6c0,0.4-0.3,0.7-0.4,1.1c-0.3,0.5-0.6,0.9-0.8,1.4c-0.1,0.1-0.1,0.3-0.1,0.4c-0.1,0.6-0.1,1.2-0.2,1.8
		c-0.1,1-0.3,2-0.4,3.1c-0.1,0.7-0.2,1.4-0.8,1.8c-0.1,0.1-0.1,0.2-0.1,0.4c0.1,1.6,0.2,3.2,0.3,4.8c0,0.3,0.2,0.5,0.3,0.8
		c0-0.1,0-0.2,0.1-0.3c0,0,0.1,0,0.1,0c0.1,0.3,0.3,0.7,0.4,1c0.5,1.9,1.2,3.8,2.1,5.6c0.2,0.3,0.1,0.8,0,1.2c-0.1,1-0.3,2-0.4,3
		C39.5,50,39.4,50,39.3,50z M13.8,23c-0.7-0.8-1.7-1.1-2.7-1.4c-0.1,0-0.2,0-0.2,0.1c-0.7,0.6-1.6,1.1-2,2.1
		c-0.2,0.7-0.2,0.9,0.5,1.3C10.3,23.4,11.8,22.8,13.8,23z M10.3,25.3c0.3,0.4,0.8,0.6,1.4,0.4c0.5-0.2,1.1-0.4,1.6-0.7
		c0.6-0.2,0.6-0.4,0.5-1.1c-0.4,0-0.7,0-1.1,0c-0.6,0-1.1,0.2-1.5,0.7C10.9,24.9,10.6,25,10.3,25.3z"/>
	<path class="st0" d="M45.1,50C45,48.9,44.4,48,44,47.1c-0.1-0.2-0.4-0.4-0.6-0.5c-0.7-0.4-1.4-0.8-2-1.3c-0.4-0.3-0.7-0.6-1-1
		c-0.6-0.7-1.1-1.5-1.6-2.2c0.2,0,0.8,0.5,1,0.9c0.6,1,1.3,1.9,2.4,2.4c0.6,0.3,1.2,0.6,1.7,1.1c0.4,0.4,0.6,1.1,0.9,1.6
		c0,0.1,0,0.2,0,0.2c0.4,0.4,0.4,1,0.5,1.5C45.2,50,45.1,50,45.1,50z"/>
	<path class="st0" d="M14.1,35.1c-0.6-0.1-0.6-0.7-0.6-1.2c0-0.3,0.3-0.7,0.6-0.8c0.9-0.4,1.9-0.8,2.8-1.1c0.8-0.2,1.6-0.4,2.5-0.6
		c1.6-0.3,3.1-0.2,4.5,0.5c0.7,0.4,1,1.1,0.8,2c-0.3,1-0.7,2-1.5,2.9c-0.6,0.7-1.5,1-2.3,1.2c-1.2,0.4-2.5,0.5-3.7,0.5
		c-0.6,0-1.2-0.3-1.5-0.9c-0.4-0.6-0.8-1.1-1.3-1.7C14.2,35.7,14.2,35.5,14.1,35.1z M20.2,36.3c0.2,0,0.4,0,0.6-0.1
		c0.1,0,0.1-0.3,0.1-0.3c-0.1-0.1-0.3-0.2-0.4-0.1C20.3,35.9,20.3,36.1,20.2,36.3C20.2,36.2,20.2,36.3,20.2,36.3
		c-0.1-0.1-0.2-0.2-0.3-0.3c-0.6,0-0.5,0.3-0.4,0.8C19.8,36.6,20,36.4,20.2,36.3z M18.6,34.2c0-0.2-0.1-0.3-0.1-0.5
		c-0.1-0.2-0.1-0.4-0.3-0.4c-0.1,0-0.3,0-0.4,0.1c-0.2,0.2-0.3,0.4-0.4,0.7c-0.1-0.2,0-0.7-0.5-0.5c-0.1,0.1-0.3,0.3-0.3,0.5
		c0,0.3-0.2,0.8,0.2,1c0,0,0.1,0,0.2,0c0.6-0.1,1.1-0.3,1.7-0.4C18.6,34.5,18.6,34.4,18.6,34.2c0.2,0.1,0.5,0.3,0.6,0.2
		c0.2,0,0.3-0.3,0.4-0.5c0-0.2,0-0.4-0.1-0.6c0-0.1-0.2-0.2-0.3-0.3c-0.1,0.1-0.3,0.2-0.4,0.3C18.7,33.6,18.7,33.9,18.6,34.2z
		 M23.9,34.7c-0.6,0.7-1.2,1.1-2,1.5c-1.3,0.6-2.6,1.1-4.1,1.1c-1.2,0-2-0.6-2.6-1.5c-0.2-0.3-0.4-0.4-0.8-0.3
		c0.1,0.2,0.2,0.3,0.3,0.4c0.4,0.5,0.8,0.9,1.1,1.4c0.4,0.7,1,0.9,1.7,0.9c1.4,0,2.7-0.1,4-0.6c0.5-0.2,0.9-0.4,1.3-0.7
		C23.5,36.3,23.7,35.5,23.9,34.7z M14.2,34.9c0-0.3,0-0.5-0.1-0.8c-0.1-0.4,0.1-0.6,0.5-0.6c1.5,0,2.9-0.7,4.3-1.2
		c0.8-0.2,1.5-0.6,2.3-0.5c0.3,0,0.7,0,1,0c0,0,0-0.1,0-0.1c-0.9-0.1-1.9-0.2-2.8,0c-1.1,0.2-2.1,0.4-3.1,0.7
		c-0.8,0.2-1.5,0.6-2.2,0.9c-0.3,0.1-0.5,0.4-0.4,0.7C13.8,34.3,13.6,34.8,14.2,34.9z M20.4,32.6c-0.2,0.2-0.4,0.4-0.6,0.6
		c-0.3,0.3-0.2,0.6,0.1,0.8c0.2,0.1,0.5,0.4,0.7,0C20.9,33.4,20.9,33.2,20.4,32.6z M15.6,34.3c-0.2,0.4,0.1,0.8,0.3,1.1
		c0.1,0.1,0.5,0,0.5,0c0.1-0.2,0.1-0.5,0-0.8c-0.1-0.2-0.3-0.4-0.4-0.6c0,0-0.1,0.1-0.1,0.1c0,0.2,0,0.3,0,0.5
		C15.8,34.4,15.7,34.4,15.6,34.3z M21.2,32.6c-0.1,0.3-0.2,0.6-0.2,0.8c0,0.2,0.3,0.3,0.5,0.4c0.1-0.2,0.3-0.4,0.4-0.6
		C22,32.8,21.7,32.8,21.2,32.6z M21.9,33.1c0.2,0.2,0.3,0.4,0.4,0.6c0.1-0.2,0.4-0.3,0.4-0.5c0-0.2,0-0.6-0.4-0.6
		C22.2,32.6,22.1,32.9,21.9,33.1z M21,36.1c0.3-0.1,0.6-0.3,1.1-0.5c-0.3-0.1-0.5-0.3-0.6-0.3C21.2,35.5,20.9,35.6,21,36.1z
		 M23.3,32.6c-0.1,0-0.1,0-0.2,0c0,0.3,0.1,0.6,0.1,0.9c0.1,0,0.3-0.1,0.3-0.1C23.7,33,23.6,32.8,23.3,32.6z M18.8,36.2
		c0,0.2,0,0.4,0,0.7c0.2-0.1,0.4-0.1,0.4-0.2c0.1-0.1,0-0.3,0-0.4C19.1,36.2,18.9,36.2,18.8,36.2z M18.5,36.3c0,0-0.1,0-0.1,0
		c-0.1,0.1-0.2,0.3-0.2,0.4c0,0.1,0.1,0.2,0.2,0.2c0.1-0.1,0.2-0.2,0.2-0.3C18.6,36.5,18.5,36.4,18.5,36.3z"/>
	<path class="st0" d="M17.2,16.5c0.7-0.1,1.2,0.2,1.7,0.5c0.4,0.2,0.9,0.4,1.3,0.4c1.3-0.1,2.3,0.4,3.4,0.9c0.6,0.3,0.8,0.9,0.4,1.5
		c-0.2,0.4-0.5,0.4-0.9,0.2c-0.6-0.4-1.2-0.6-2-0.5c-0.7,0.1-1.3,0-2,0c-0.2,0-0.4-0.1-0.5-0.2c-0.7-0.4-1.5-0.7-2.3-0.7
		c-0.5,0-0.9-0.1-1.4-0.2c-0.4-0.1-0.4-0.3-0.2-0.5C15.3,17.1,15.9,16.3,17.2,16.5z"/>
	<path class="st0" d="M13.9,21.5c0.6,0.8,1,1.8,0.9,2.8c-0.2,1.4-0.4,2.8-1.1,4c-0.3,0.5-0.2,1,0.1,1.6c0,0-0.1,0-0.1,0.1
		c-0.1-0.2-0.3-0.5-0.5-0.7c-0.3,0.3-0.2,0.8,0,1.1c0.1,0.2,0.4,0.3,0.7,0.4c0,0,0.1-0.1,0.1-0.1c-0.1-0.1-0.1-0.1-0.2-0.2
		c0,0,0-0.1,0.1-0.1c0.3,0.1,0.5,0.2,0.8,0.3c-0.7,0.6-1.3,0.5-1.7,0c-0.2-0.3-0.2-1.1,0.1-1.4c0.6-0.8,0.9-1.7,1.2-2.7
		c0.1-0.3,0.1-0.7,0.2-1.1c-1.1,0.7-1.5,1.7-2.1,2.6c-0.6,0.9-0.8,2-0.8,3.1c-0.9-1.1,1.7-6,3.1-6c0-0.6,0-1.2-0.2-1.8
		c-0.1-0.6-0.4-1.1-0.6-1.7C13.8,21.5,13.9,21.5,13.9,21.5z"/>
	<path class="st0" d="M18.4,22.7c-0.1-0.9,0.4-1.3,1.8-1.5c0,0,0-0.1,0-0.1c-0.4,0-0.8,0-1.2,0.1c-0.4,0.2-0.6,0.6-1,1
		c0.1-0.5,0.3-0.8,0.6-1c0.6-0.4,1.2-0.4,1.8-0.2c0.5,0.1,1.1,0.3,1.7,0.4c0,0,0.1,0,0.1,0c0.7-0.4,1.5-0.8,2.2-1.2
		c0.1-0.1,0.3-0.2,0.4-0.2c-0.4,0.7-1,1-1.7,1.3c-0.4,0.2-0.7,0.4-1,0.6c-0.2,0.1-0.4,0.1-0.6,0.1c-1,0-1.9,0.3-2.8,0.7
		C18.5,22.6,18.5,22.6,18.4,22.7z"/>
	<path class="st0" d="M27.1,28.8c0.1,0.2,0.2,0.2,0.2,0.3c0.3,1.2,0.5,2.5,0.4,3.8c0,0.4-0.2,0.9-0.4,1.3c-0.5,1.8-1.1,3.7-1.6,5.5
		c-0.1,0.2-0.2,0.3-0.2,0.5c0,0-0.1,0-0.1,0c0-0.2,0-0.3,0.1-0.5c0.4-1.4,0.9-2.9,1.3-4.3c0.2-0.6,0.3-1.2,0.5-1.7
		c0.4-0.8,0.2-1.7,0.1-2.5c-0.1-0.6-0.2-1.2-0.4-1.8C27.1,29.1,27.1,29,27.1,28.8z"/>
	<path class="st0" d="M25.5,30.3c0.1,0.1,0.2,0.1,0.3,0.2c0.1,0.4,0.3,0.7,0.3,1.1c0,1.6,0.1,3.2-0.1,4.7c-0.1,1-0.5,2.1-1.2,2.8
		c-0.2,0.2-0.4,0.5-0.7,0.8c0,0-0.1-0.1-0.1-0.1c0.1-0.2,0.1-0.4,0.3-0.5c0.7-0.7,1.1-1.4,1.3-2.4c0.1-0.5,0.2-1,0.2-1.5
		c0-1.3,0-2.5,0-3.8C25.8,31.3,25.6,30.9,25.5,30.3z"/>
	<path class="st0" d="M12.4,30.9c-0.1,0.2-0.2,0.3-0.3,0.5c-0.4,0.5-0.4,1-0.3,1.6c0.1,0.9,0.7,1.6,1.4,2.2c1.4,1.4,2.5,3.1,2.9,5.2
		c0,0.1,0,0.1,0,0.2c0,0,0,0.1-0.1,0.2c-0.1-0.1-0.2-0.2-0.2-0.3c-0.3-1.4-0.9-2.6-1.7-3.7c-0.4-0.6-0.9-1.1-1.4-1.5
		c-1-0.9-1.4-1.9-1.2-3.2c0.1-0.4,0.4-0.8,0.6-1.1C12.3,30.9,12.3,30.9,12.4,30.9z"/>
	<path class="st0" d="M25.1,34.2c0.1-1.6,0-3.3-1.2-4.5c-1.1-1.1-2.1-2.4-3.8-2.6c0-0.1,0-0.1,0.1-0.2c0.3,0.1,0.7,0.1,1,0.2
		c1.1,0.5,2,1.4,2.8,2.2c1.2,1.2,1.5,2.7,1.5,4.3c0,0.2,0,0.4-0.1,0.6C25.3,34.2,25.2,34.2,25.1,34.2z"/>
	<path class="st0" d="M34.7,21.9c1.1,0.7,1,1.7,0.8,2.8c0.5-0.3,0.7-0.9,1.4-0.8c-0.5,0.4-0.9,0.8-1.4,1.1c-0.3,0.2-0.3-0.1-0.3-0.3
		c0-0.5,0.1-0.9,0-1.4c-0.1-0.4-0.3-0.7-0.4-1.1C34.9,22.2,34.8,22.1,34.7,21.9z"/>
	<path class="st0" d="M19.2,29.5c0.2-0.4,0.6-0.7,0.7-1.1c0.1-0.2-0.1-0.6-0.3-0.8c-0.2-0.3-0.6-0.3-1.4,0c0-0.4,0.3-0.6,0.8-0.5
		c0.7,0,1.1,0.5,1.1,1.2C20.1,29,19.7,29.5,19.2,29.5z"/>
	<path class="st0" d="M22.3,22.4c-0.1,0.2-0.1,0.3-0.1,0.4c-1,0.7-2,1.3-3.2,0.9c-0.3-0.1-0.4-0.2-0.4-0.6c1,0.8,2,0.4,2.9-0.1
		C21.6,22.9,21.9,22.7,22.3,22.4z"/>
	<path class="st0" d="M38.1,23.5c0.8-1.1,0.6-2.3,0.4-3.4c0.5,0.1,0.5,0.8,0.4,2.5C38.9,22.9,38.6,23.4,38.1,23.5z"/>
	<path class="st0" d="M37.5,23.6c0.2-0.4,0.5-0.8,0.6-1.2c0.1-0.4,0.2-0.8,0.2-1.2c0-0.4-0.1-0.8-0.2-1.3
		C39,20.8,38.4,23.2,37.5,23.6z"/>
	<path class="st0" d="M12.6,16.7c1.1-0.4,2.3-0.7,3.4-1.1c0,0,0,0.1,0.1,0.1c0,0-0.1,0.1-0.1,0.1c-0.7,0.3-1.4,0.5-2.2,0.8
		C13.4,16.8,13,16.8,12.6,16.7z"/>
	<path class="st0" d="M12.7,15.8c-0.6,0.3-1.1,0.5-1.7,0.9C10.5,17,10,17.3,10,18.1c-0.1,0-0.1-0.1-0.2-0.1c0.1-0.2,0-0.6,0.2-0.7
		c0.8-0.6,1.6-1.1,2.5-1.6c0.1,0,0.2,0,0.3,0C12.7,15.7,12.7,15.8,12.7,15.8z"/>
	<path class="st0" d="M14.2,20.3c-0.7-0.7-0.8-2.3-0.1-2.9C13.6,18.4,14,19.3,14.2,20.3z"/>
	<path class="st0" d="M16.4,30.6c-0.1-0.1-0.3-0.1-0.3-0.2c0-0.1,0.1-0.3,0.1-0.4c0.6-0.6,1.4-0.8,2.2-0.7c0.2,0,0.3,0.1,0.5,0.2
		c-0.6,0-1.1,0-1.6,0.1C16.6,29.6,16.2,30.1,16.4,30.6z"/>
	<path class="st0" d="M35.1,21.5c0.1-0.5,0.2-1,0.3-1.5c0-0.1,0.3-0.2,0.4-0.2c0.4,0.1,0.7,0.3,1,0.5c0,0,0,0.1-0.1,0.1
		c-0.4-0.1-0.7-0.3-1.1-0.4c-0.1,0.5-0.3,1-0.4,1.5C35.2,21.6,35.2,21.5,35.1,21.5z"/>
	<path class="st0" d="M22.8,21.5c1,0,1.8-0.7,2.8-0.7c0,0,0,0.1,0,0.1c-0.5,0.2-0.9,0.4-1.4,0.5c-0.5,0.1-0.9,0.2-1.4,0.3
		C22.8,21.7,22.8,21.6,22.8,21.5z"/>
	<path class="st0" d="M17.3,15.1c-0.9,0.2-1.7,0.4-2.6,0.6c0-0.1,0-0.2-0.1-0.2c0.9-0.2,1.7-0.4,2.6-0.6
		C17.2,14.9,17.2,15,17.3,15.1z"/>
	<path class="st0" d="M25.1,21.8c-0.8,0.2-1.6,0.3-2.5,0.5c0-0.1,0-0.2,0-0.2c0.8-0.2,1.7-0.3,2.5-0.5C25,21.7,25,21.8,25.1,21.8z"
		/>
	<path class="st0" d="M13.4,20.4c-0.2-0.6-0.5-1.1-0.7-1.7c0.1,0,0.1-0.1,0.2-0.1c0.2,0.6,0.5,1.1,0.7,1.7
		C13.5,20.4,13.4,20.4,13.4,20.4z"/>
	<path class="st0" d="M16.2,21.5c0.1,0.5,0.1,1,0.2,1.6c-0.2-0.2-0.4-0.4-0.4-0.5C16,22.2,15.8,21.8,16.2,21.5z"/>
	<path class="st0" d="M24.3,18.8c0.4,0.2,0.7,0.4,1.1,0.6c0,0.1-0.1,0.1-0.1,0.2c-0.4-0.2-0.7-0.3-1.1-0.5
		C24.2,19,24.3,18.9,24.3,18.8z"/>
</g>
</svg>
