<?xml version="1.0" encoding="utf-8"?>
<!-- Generator: Adobe Illustrator 21.1.0, SVG Export Plug-In . SVG Version: 6.00 Build 0)  -->
<svg version="1.1" id="Layer_1" xmlns="http://www.w3.org/2000/svg" xmlns:xlink="http://www.w3.org/1999/xlink" x="0px" y="0px"
	 viewBox="0 0 210 250" style="enable-background:new 0 0 210 250;" xml:space="preserve">
<style type="text/css">
	.st0{fill:#FFFFFF;}
</style>
<g>
	<path class="st0" d="M194.9,240.5l-2.9-5.9l-4.8-3.1l-6.3-3.2l-4.1-3.9l-5.6-8.1l-4-4l-2.7-4.2l-1.4-0.2c-0.6-2.2-1.2-4.4-1.9-6.7
		c-0.6,0-1.2,0.1-2.5,0.3c-3.5-20.5-4.8-40.9,0.7-61.6c-2.6,0.8-5.1,1.4-7.5,2.2c-0.3,0.1-0.5,1.1-0.4,1.6c0.5,4.4-0.4,8.9,1.3,13.1
		c0.3,0.7,0.1,1.6,0.1,2.4c0,8,0.3,15.9,0,23.9c0,2-1.4,4.2-2.7,6c-2.7,3.7-5.8,7.1-8.5,10.8c-1.5,2.1-2.5,4.6-3.6,7
		c-0.3,0.6-0.5,1.2-0.8,1.8c-0.3-0.1-0.6-0.2-0.9-0.3c0.4-1.5,0.6-3.1,1.4-4.4c1.9-3,4.2-5.9,6.3-8.8c1.9-2.6,3.8-5.2,5.7-7.7
		c1.6-2.2,2-4.6,2-7.3c-0.1-7.4,0-14.8-0.3-22.2c-0.2,1-0.5,2.1-0.8,3.1c-0.2,0-0.3,0-0.5-0.1c0-6.8,0-13.6,0-20.4
		c7.6-0.4,13.5-3.2,16.9-10.4c1.6-3.6,3.4-6.9,3.2-11.1c-0.2-3.7,0.1-7.5,0.6-11.2c0.6-4.1-1.5-7.3-2.7-10.8
		c-0.4-1.2-0.8-2.4-1.1-3.7c-0.6-2.8-2.6-4.4-5.4-4.4c-1.3,0-2.6,0-3.9,0c-2,0-3.3,0.7-4.3,2.7c-1,2.2-2.8,4-4.3,6
		c-0.2-0.1-0.5-0.2-0.7-0.4c0.4-0.9,0.8-1.7,1.4-2.6c0.9-1.5,1.9-3,2.9-4.4c0.2-0.2,0.3-0.5,0.5-0.8c3-3.1,7-2,10.5-1.6
		c2.5,0.2,4.1,2.9,4.7,5.6c0.4,1.9,1.1,3.7,2,5.5c-0.9-4.2-1.1-8.6-4.3-12.1c-3.6-4-8-2.7-12.1-2.1c-1.5,0.2-3.2,2.1-4,3.6
		c-2,3.9-5,6.9-8.1,9.8c-3.3,3.1-5.6,6.8-7.4,10.8c-0.2,0.5-0.9,1.3-1.4,1.3c-2.9,0-5.8-0.3-8.2-0.4c-0.6-4.4-1.1-8.4-1.8-12.4
		c-0.9-5.1-3.9-9.1-7.4-12.7c-2.4-2.6-5.1-4.9-7.9-7c-1.8-1.3-2.4-2.8-2.3-4.8c0.2-3.5,0.1-7.1,0.3-10.6c0-1.5-0.6-2.2-1.9-2.7
		c-3-1.3-6.5-2.2-9-4.3c-2.8-2.3-5.7-3.7-9.1-3.6c-2.4,0-4.7,0.8-7.1,1.3c-2.4,0.5-4.6,1.4-7,1.6c-6.6,0.7-11.7,4.8-17.3,7.6
		c-4.7,2.4-9.7,4.5-14.9,4.5c-8.6,0-14.4,7.2-16,14.1c-1.4,6-2.9,12.2-2.5,18.5c0,1.4,0.4,2.7,0.7,4.8c5.9-5.7,10.6-11.8,18.8-12.8
		c0,0.4,0.1,0.9-0.1,1.3c-1.2,1.8-1.7,3.7-1.6,5.9c0,0.8-0.6,1.8-1.2,2.5c-2.1,2.4-4.4,4.6-6.6,6.9c-0.3,0.3-0.6,0.8-1.2,1.5
		c1.3,0.6,2.2,1.4,3.4,1.7c4.2,1,8.3,2.3,11.5,5.3c1,0.9,1.8,2.4,1.9,3.6c0.5,8.2,0.4,8.2-7.3,11.2c-2,0.8-3.6,2.7-6,1.9
		c-2-0.6-4.1-1.2-5.9-2.3c-0.7-0.4-0.6-2.1-0.9-3.2c-1.9,1.6-2,2.1-0.7,5.4c0.8-0.2,1.7-0.4,2.6-0.6c0,0.1,0.1,0.3,0.2,0.4
		c-0.9,0.8-1.8,1.6-2.8,2.5c0.1,0.2,0.3,0.4,0.4,0.6c1.4-0.3,2.8-0.6,4.8-1.1c-1.9,1.5-3.7,2.4-4.5,3.8c-3,5.3-4.9,11.1-3.9,17.2
		c0.5,3.2,2.6,6.1,4.1,9.2c4.4,9,10,17.1,16.9,24.4c3.3,3.5,6.3,7.5,8.8,11.8c1.3,2.2,1.4,5.2,1.4,7.9c0,3.8,1,7.4,3.2,10.2
		c1.8,2.3,4.9,3.7,7.6,5.2c7.5,4.4,14.3,0.3,21-2.2c5.3-2,9.2-6,12.1-10.8c0.1-0.1,0.4-0.2,0.6-0.3c1,5.2-11.5,13.2-26.3,16.7
		c2,3.2,6.5,4,7.8,8.4c-2.6-2.1-4.5-4.1-6.8-5.6c-2.6-1.8-5.4-3.3-8.2-4.7c-0.5-0.2-1.4,0.4-1.8,0.5c1.1,1.5,2,2.4,2.5,3.5
		c1.1,2.5,2,5.1,3,7.6c1.3,3.7,3.7,6.5,6.6,9c1.2,1,2.1,2.4,3.1,3.6c30.5,0,61,0,91.4,0h28.1v-3L194.9,240.5z M167.8,116.3
		c-0.1,2.3-1.7,4.5-3.8,4.7c4-5.4,3-11.1,2-16.7C168.7,104.8,168.4,108.1,167.8,116.3z M163.7,116.3c0.6-1.9,0.8-4.1,0.8-6.1
		c0-1.9-0.5-3.8-0.9-6.2c4.4,4.4,1.6,16.1-2.7,18C162,119.8,163.1,118.1,163.7,116.3z M150.9,104.3c0.1-0.5,1.4-1.2,1.7-1
		c1.7,0.7,3.3,1.7,5,2.6c-0.1,0.2-0.2,0.5-0.3,0.7c-1.7-0.7-3.4-1.3-5.1-2c-0.7,2.5-1.3,4.9-1.9,7.4c-0.3-0.1-0.6-0.2-1-0.3
		C149.8,109.2,150.2,106.7,150.9,104.3z M151.5,127.3c2.4-1.2,3.6-4.3,6.8-3.8c-2.2,1.8-4.4,3.8-6.7,5.3c-1.3,0.8-1.3-0.5-1.3-1.4
		c0-2.2,0.4-4.5,0.1-6.7c-0.2-1.8-1.3-3.4-2-5.1c-0.3-0.7-0.6-1.4-1-2C152.7,117,152.1,122,151.5,127.3z M102.9,108.6
		c-2.2,0.9-4.5,1.8-6.7,2.5c-2.2,0.7-4.5,1.1-6.8,1.6c-0.1-0.4-0.2-0.8-0.3-1.2c4.8-0.1,8.9-3.4,13.6-3.6
		C102.8,108.2,102.8,108.4,102.9,108.6z M94.9,151.4c-5.2-5.6-10.1-11.9-18.7-12.8c0.1-0.3,0.2-0.6,0.3-1c1.6,0.3,3.3,0.4,4.7,1
		c5.5,2.3,9.6,6.7,13.7,10.8c5.7,5.8,7.2,13.2,7.1,21c0,0.9-0.1,1.9-0.2,2.8c-0.4,0-0.7,0-1.1,0C100.9,165.4,100.5,157.4,94.9,151.4
		z M73.6,141.5c-0.9-1.5-3.1-1.4-6.6,0.2c0.2-2,1.3-2.7,3.8-2.6c3.3,0.2,5.5,2.4,5.5,5.7c0,3.2-2,5.7-4.7,5.9
		c1.2-1.7,2.7-3.4,3.3-5.3C75.2,144.4,74.3,142.7,73.6,141.5z M57.9,155.7c-0.6-0.4-1.5-0.6-1.7-1.1s0.2-1.4,0.7-1.8
		c2.9-3.1,6.7-3.9,10.7-3.5c0.8,0,1.6,0.7,2.6,1.2c-2.9,0.2-5.3,0.2-7.7,0.5C59.3,151.2,57.4,153.3,57.9,155.7z M56.1,116.6
		c-0.1-1.7-0.9-3.8,1-5.1c0.3,2.5,0.6,4.7,1,7.7C57.2,118,56.1,117.4,56.1,116.6z M85.6,112.9c-0.9,0.4-2,0.6-3,0.5
		c-5-0.2-9.5,1.3-13.8,3.5c-0.3,0.1-0.6,0.2-1.1,0.4c-0.7-4.2,1.7-6.2,8.6-7.4c0-0.2,0-0.4,0-0.7c-1.9,0.1-4.1-0.2-5.8,0.6
		c-1.7,0.8-2.9,2.8-4.7,4.6c0.2-2.4,1.3-3.8,2.8-4.9c2.8-2.2,5.9-1.7,8.9-0.9c2.7,0.7,5.4,1.4,8.1,2.1c0.1,0,0.3,0.1,0.5,0
		c3.5-2,7.1-4,10.6-6c0.7-0.4,1.3-1,2.2-1.2c-1.7,3.5-5,4.9-8.2,6.5C88.8,110.8,87.3,112.1,85.6,112.9z M86.8,116.1
		c-0.3,1-0.4,1.6-0.7,1.8c-4.7,3.4-9.6,6.2-15.8,4.5c-1.5-0.4-2.2-1.1-2.1-2.9c5,3.8,9.5,1.9,14-0.6C83.6,118.2,85,117.2,86.8,116.1
		z M88.1,114.5c4-0.8,8.1-1.5,12.1-2.3c0,0.3,0.1,0.7,0.1,1c-4,0.8-8,1.6-12,2.4C88.2,115.2,88.1,114.8,88.1,114.5z M96.6,98.5
		c1.7,0.9,3.5,1.8,5.2,2.7c-0.1,0.3-0.3,0.6-0.5,0.9c-1.7-0.8-3.5-1.6-5.3-2.5C96.2,99.3,96.4,98.9,96.6,98.5z M70.1,89.7
		c1.7,1.1,4.3,2,6.2,1.7c6.1-0.7,11.3,1.7,16.4,4.3c3.1,1.5,3.8,4.4,1.9,7.2c-1.1,1.7-2.6,2.1-4.3,1c-2.9-1.9-6-2.8-9.5-2.4
		c-3.2,0.3-6.4,0.2-9.6,0.1c-0.8,0-1.7-0.3-2.4-0.8c-3.5-2.1-7.2-3.4-11.4-3.2c-2.2,0.1-4.5-0.5-6.7-0.9c-1.7-0.3-1.9-1.5-1.1-2.6
		c3.1-3.9,6.2-8,12.2-6.9C65.1,86.6,67.5,88,70.1,89.7z M62,79.3c0.1,0.3,0.1,0.7,0.2,1.1c-4.3,1-8.5,2.1-12.7,3.1
		c-0.1-0.4-0.2-0.8-0.3-1.1C53.5,81.3,57.8,80.3,62,79.3z M26.7,95c-0.3-0.1-0.7-0.3-1.1-0.5c0.3-1.2,0.2-2.8,1-3.3
		c3.9-2.8,8-5.3,12-7.8c0.3-0.2,0.8,0,1.3,0.1c0,0.2,0.1,0.4,0.2,0.6c-2.7,1.4-5.5,2.7-8.1,4.3C29.6,89.8,26.8,91.2,26.7,95z
		 M39.8,88.1c5.6-1.8,11-3.5,16.4-5.2c0.1,0.2,0.2,0.5,0.3,0.7c-0.1,0.2-0.3,0.6-0.5,0.7c-3.5,1.3-7,2.6-10.5,3.8
		C43.6,88.8,41.7,88.8,39.8,88.1z M43.3,106.4c-1.2-2.7-2.3-5.4-3.5-8.1c0.3-0.1,0.7-0.3,1-0.4c1.2,2.7,2.4,5.4,3.6,8.1
		C44,106.1,43.7,106.3,43.3,106.4z M46.8,91.6c-2.6,4.8-0.1,9.3,0.7,14C43.9,102.1,43.5,94.4,46.8,91.6z M49.1,128.5
		c-0.2-3-0.2-5.9-0.8-8.8c-0.6-2.8-1.9-5.5-2.9-8.2c0.2-0.1,0.4-0.1,0.6-0.2c2.8,4.1,4.8,8.6,4.2,13.7c-0.9,6.8-1.9,13.5-5.2,19.7
		c-1.3,2.5-0.8,5.1,0.4,7.5c-0.2,0.1-0.5,0.2-0.7,0.3c-0.7-1.2-1.5-2.3-2.2-3.5c-1.5,1.6-0.9,3.8-0.2,5.6c0.3,0.9,2.1,1.3,3.2,1.9
		c0.1-0.2,0.3-0.5,0.4-0.7c-0.3-0.4-0.6-0.7-0.9-1.1c0.1-0.2,0.2-0.4,0.3-0.6c1.2,0.4,2.4,0.8,3.9,1.3c-3.3,2.8-6.4,2.6-8.2,0
		c-1-1.5-0.9-5.4,0.3-6.9c3.1-3.9,4.6-8.5,5.7-13.3c0.4-1.6,0.7-3.2,1.1-5.6c-5.2,3.4-7.3,8.4-10,12.7c-2.9,4.5-3.7,9.7-4.1,15.3
		C29.8,152.5,42.6,128.4,49.1,128.5z M56.6,205.1c-0.4-0.6-0.8-1-0.9-1.5c-1.3-6.8-4.5-12.7-8.4-18.2c-1.9-2.7-4.3-5.2-6.8-7.4
		c-4.6-4.2-6.6-9.4-5.8-15.5c0.2-1.9,2-3.7,3-5.5c0.3,0.2,0.6,0.4,0.9,0.6c-0.4,0.7-0.8,1.6-1.3,2.2c-2.1,2.3-1.7,4.9-1.3,7.7
		c0.7,4.6,3.5,7.7,6.6,10.8c7,7,12.2,15.2,14.3,25.2c0,0.3,0.1,0.6,0.1,1C57,204.5,56.9,204.6,56.6,205.1z M91.2,186
		c-3.1,3.3-7.2,4.6-11.3,6c-5.9,1.9-12,2.3-18,2.2c-3,0-5.8-1.3-7.5-4.4c-1.7-3-4.1-5.5-6.1-8.4c-0.6-0.8-0.8-1.9-1.5-3.5
		c-3.1-0.3-3-3.4-2.9-5.8c0.1-1.5,1.6-3.4,3-4.1c4.5-2.1,9.1-3.8,13.9-5.3c3.9-1.2,7.9-2,11.9-2.7c7.5-1.3,15-1.1,22.1,2.4
		c3.5,1.7,5.1,5.2,3.8,9.6C96.9,177.1,94.9,182,91.2,186z M95.6,201.8c-0.2-0.1-0.4-0.3-0.7-0.4c0.4-0.8,0.7-1.8,1.4-2.4
		c3.3-3.2,5.6-7,6.6-11.5c0.5-2.4,1.1-4.8,1.2-7.3c0.1-6.1,0.2-12.2,0-18.3c-0.1-2.3-0.9-4.6-1.5-7.4c0.5,0.5,1.1,0.7,1.3,1.1
		c0.6,1.7,1.5,3.5,1.5,5.3c0.1,7.7,0.3,15.4-0.4,23.1c-0.4,5-2.2,10-6,13.8C97.6,199,96.6,200.4,95.6,201.8z M113.7,166.8
		c-0.1,2.2-1.2,4.3-1.8,6.4c-2.7,8.9-5.3,17.9-8,26.8c-0.2,0.9-0.8,1.6-1.2,2.5c-0.2,0-0.5-0.1-0.7-0.2c0.1-0.8,0.2-1.5,0.4-2.3
		c2.1-7.1,4.2-14.1,6.3-21.1c0.8-2.8,1.5-5.6,2.6-8.2c1.8-4.1,1.2-8.2,0.7-12.3c-0.3-3-1.2-6-1.7-8.9c-0.1-0.6,0-1.2,0-2.4
		c0.6,0.8,1.1,1.1,1.2,1.5C113.1,154.5,114.1,160.6,113.7,166.8z"/>
	<path d="M169.7,250.2c1.9-5.3,2.2-10.8,2-16.4c0-1.3-1.1-2.4-1.5-3.7c-1-2.6-2.1-5.1-2.9-7.8c-1.4-4.5-2.5-8.9-3.7-13.4
		c-0.7-2.6-1.5-5.1-2.2-7.8c-0.6,0-1.2,0.1-2.5,0.3c-3.5-20.5-4.8-40.9,0.7-61.6c-2.6,0.8-5.1,1.4-7.5,2.2c-0.3,0.1-0.5,1.1-0.4,1.6
		c0.5,4.4-0.4,8.9,1.3,13.1c0.3,0.7,0.1,1.6,0.1,2.4c0,8,0.3,15.9,0,23.9c0,2-1.4,4.2-2.7,6c-2.7,3.7-5.8,7.1-8.5,10.8
		c-1.5,2.1-2.5,4.6-3.6,7c-0.3,0.6-0.5,1.2-0.8,1.8c-0.3-0.1-0.6-0.2-0.9-0.3c0.4-1.5,0.6-3.1,1.4-4.4c1.9-3,4.2-5.9,6.3-8.8
		c1.9-2.6,3.8-5.2,5.7-7.7c1.6-2.2,2-4.6,2-7.3c-0.1-7.4,0-14.8-0.3-22.2c-0.2,1-0.5,2.1-0.8,3.1c-0.2,0-0.3,0-0.5-0.1
		c0-6.8,0-13.6,0-20.4c7.6-0.4,13.5-3.2,16.9-10.4c1.6-3.6,3.4-6.9,3.2-11.1c-0.2-3.7,0.1-7.5,0.6-11.2c0.6-4.1-1.5-7.3-2.7-10.8
		c-0.4-1.2-0.8-2.4-1.1-3.7c-0.6-2.8-2.6-4.4-5.4-4.4c-1.3,0-2.6,0-3.9,0c-2,0-3.3,0.7-4.3,2.7c-1,2.2-2.8,4-4.3,6
		c-0.2-0.1-0.5-0.2-0.7-0.4c0.4-0.9,0.8-1.7,1.4-2.6c0.9-1.5,1.9-3,2.9-4.4c0.2-0.2,0.3-0.5,0.5-0.8c3-3.1,7-2,10.5-1.6
		c2.5,0.2,4.1,2.9,4.7,5.6c0.4,1.9,1.1,3.7,2,5.5c-0.9-4.2-1.1-8.6-4.3-12.1c-3.6-4-8-2.7-12.1-2.1c-1.5,0.2-3.2,2.1-4,3.6
		c-2,3.9-5,6.9-8.1,9.8c-3.3,3.1-5.6,6.8-7.4,10.8c-0.2,0.5-0.9,1.3-1.4,1.3c-2.9,0-5.8-0.3-8.2-0.4c-0.6-4.4-1.1-8.4-1.8-12.4
		c-0.9-5.1-3.9-9.1-7.4-12.7c-2.4-2.6-5.1-4.9-7.9-7c-1.8-1.3-2.4-2.8-2.3-4.8c0.2-3.5,0.1-7.1,0.3-10.6c0-1.5-0.6-2.2-1.9-2.7
		c-3-1.3-6.5-2.2-9-4.3c-2.8-2.3-5.7-3.7-9.1-3.6c-2.4,0-4.7,0.8-7.1,1.3c-2.4,0.5-4.6,1.4-7,1.6c-6.6,0.7-11.7,4.8-17.3,7.6
		c-4.7,2.4-9.7,4.5-14.9,4.5c-8.6,0-14.4,7.2-16,14.1c-1.4,6-2.9,12.2-2.5,18.5c0,1.4,0.4,2.7,0.7,4.8c5.8-5.7,10.5-11.8,18.7-12.8
		c0,0.4,0.1,0.9-0.1,1.3c-1.2,1.8-1.7,3.7-1.6,5.9c0,0.8-0.6,1.8-1.2,2.5c-2.1,2.4-4.4,4.6-6.6,6.9c-0.3,0.3-0.6,0.8-1.2,1.5
		c1.3,0.6,2.2,1.4,3.4,1.7c4.2,1,8.3,2.3,11.5,5.3c1,0.9,1.8,2.4,1.9,3.6c0.5,8.2,0.4,8.2-7.3,11.2c-2,0.8-3.6,2.7-6,1.9
		c-2-0.6-4.1-1.2-5.9-2.3c-0.7-0.4-0.6-2.1-0.9-3.2c-1.9,1.6-2,2.1-0.7,5.4c0.8-0.2,1.7-0.4,2.6-0.6c0,0.1,0.1,0.3,0.2,0.4
		c-0.9,0.8-1.8,1.6-2.8,2.5c0.1,0.2,0.3,0.4,0.4,0.6c1.4-0.3,2.8-0.6,4.8-1.1c-1.9,1.5-3.7,2.4-4.5,3.8c-3,5.3-4.9,11.1-3.9,17.2
		c0.5,3.2,2.6,6.1,4.1,9.2c4.4,9,10,17.1,16.9,24.4c3.3,3.5,6.3,7.5,8.8,11.8c1.3,2.2,1.4,5.2,1.4,7.9c0,3.8,1,7.4,3.2,10.2
		c1.8,2.3,4.9,3.7,7.6,5.2c7.5,4.4,14.3,0.3,21-2.2c5.3-2,9.2-6,12.1-10.8c0.1-0.1,0.4-0.2,0.6-0.3c1,5.2-11.5,13.2-26.3,16.7
		c2,3.2,6.5,4,7.8,8.4c-2.6-2.1-4.5-4.1-6.8-5.6c-2.6-1.8-5.4-3.3-8.2-4.7c-0.5-0.2-1.4,0.4-1.8,0.5c1.1,1.5,2,2.4,2.5,3.5
		c1.1,2.5,2,5.1,3,7.6c1.3,3.7,3.7,6.5,6.6,9c1.2,1,2.1,2.4,3.1,3.6c-0.3,0-0.6,0-1,0c-0.9-0.9-1.7-2-2.7-2.7
		c-3.8-2.6-6.1-6.2-7.6-10.4c-0.8-2.2-1.7-4.5-2.7-6.6c-0.4-0.8-1.3-1.4-2.1-2.3c-2.7,4.3-5,8.2-7.5,12c-1.6,2.5-1.5,6.2-5.1,7.4
		c-1,0.3-1.6,1.7-2.4,2.6c0.8-1.5,1.5-2.9,2.5-4.3c1.1-1.6,2.3-3.2,3.3-4.9c2.5-4.1,5-8.2,7.4-12.3c0.7-1.1,1.2-2.3,1.8-3.7
		c0,0-0.1-0.3-0.3-0.3c-7.1-3.3-9.4-9.5-9.2-16.6c0.2-5.4-2.7-9-5.7-12.8c-4.5-5.6-9.6-10.7-13.5-16.6c-4.5-6.8-8.4-14-11.5-21.6
		c-1.3-3.1-0.1-7.4,0.5-11c0.5-3.2,2.3-6.1,2.1-9.7c-0.2-3.1-0.9-5.6-3.3-7.6c-1.4-1.1-2.3-2.4-2.1-4.4c0.1-0.8-0.6-1.8-1.1-2.6
		c-2.5-3.8-3.5-7.6-0.3-11.5c0.2-0.3,0.4-0.7,0.6-1c1.8-2.8,4.3-5.5,0.8-8.8c0,0-0.4,0.2-1,0.6c-0.4-2-0.7-3.9-1.1-5.8
		c-0.5,0.2-1,0.4-1.6,0.7c0.1-0.6,0.1-0.9,0.3-1.3c0.8-1.8,2.5-3.6-0.3-5.3c-0.1-0.1,0-1.2,0.4-1.6c0.9-1.4,1.9-2.7,3.2-4.5
		c-1.2,0.2-1.9,0.3-2.9,0.5c0.8-1.1,1.5-2,2.1-2.9c-0.1-0.1-0.2-0.3-0.3-0.5c-0.8,0.2-1.6,0.4-3,0.7c0.7-1.3,1.2-2.1,1.7-3
		c-0.1-0.1-0.2-0.2-0.3-0.4c-0.9,0.5-1.7,1.1-3.1,1.9c0.4-2.1,0.7-3.8,1.1-5.9c-1.1,0.6-1.6,0.9-2.5,1.4c-0.1-0.7-0.2-1.3-0.3-2
		c-0.6,0.2-1.2,0.4-1.8,0.6c0-6.1,0-12,0-18.7c1.2,1.2,1.8,1.7,2.7,2.5c0-1.6,0-2.9,0-4.2c0.1,0.1,0.3,0.2,0.5,0.3c1-1,2-2,3-3.1
		c0.8-0.8,2.8-0.2,2-2.7c1.4,0,2.4,0,3.7,0c-0.4-0.6-0.7-1.1-1.1-1.8c1.4-0.1,2.7-0.1,4.1-0.2c-0.4-1.2-0.8-2.2-1.2-3.4
		c1.4-0.3,2.6-0.5,3.8-0.8c-0.4-1.2-0.8-2.4-1.2-3.7c0.7-0.5,3.4,0.3,1.6-2.7c1.6,0.1,2.8,0.3,4.5,0.4c-0.6-1.2-1-2-1.5-3.1
		c1-0.3,1.9-0.5,2.8-0.8c0.6-0.2,1.5-0.7,1.5-0.9c-0.6-2.7,1.2-1.9,2.6-2c0.5,0,1.1-0.2,1.5-0.5c2.4-1.8,4.7-3.8,7.1-5.7
		c1-0.8,2.1-1.5,3.3-2c2.9-1,5.9-1.7,8.7-2.9c1.6-0.6,3-2.1,4.6-2.7c3.2-1.1,6.6-2.2,10-2.7c3.7-0.5,7.5-0.4,11.3-0.4
		c1.8,0,3.5,0.9,5.3,0.9c3,0,6.1-0.4,9.1-0.4c3.5-0.1,7-0.2,10.4,1.5c1.5,0.8,3.6,0.8,5.4,0.8c3,0,5.4,0.9,8.1,2.4
		c3.5,2,7.6,3.3,11.6,4.4c4.3,1.2,7.8,2.9,11,6.4c3.6,4.1,6,8.8,9.1,13.1c2.3,3.2,5.3,6.1,5.2,10.5c0,0.7,1.4,1.4,1.7,2.2
		c1.4,3.7,2.8,7.4,3.9,11.2c0.8,3,1.3,6.1,1.6,9.2c0.4,3.4,0.4,6.9,0.7,10.3c0,0.7,0.2,1.5,0.6,2.1c1.8,2.5,2.6,5.3,3.5,8.3
		c1.2,3.8,0.9,7.4,0.8,11.2c-0.1,5.9-0.4,11.7-1,17.5c-0.2,1.8-1.3,3.6-2.2,5.3c-1.3,2.3-2.7,4.5-4,6.9c-0.3,0.6-0.4,1.3-0.5,2
		c-0.3,2.9-0.5,5.7-0.9,8.6c-0.7,5-1.5,10-2.1,15c-0.4,3.4-1,6.6-3.8,8.9c-0.4,0.3-0.5,1.2-0.5,1.7c0.5,7.8,1,15.6,1.5,23.3
		c0.1,1.3,0.8,2.6,1.6,3.7c0.1-0.5,0.2-1.1,0.3-1.6c0.1,0,0.3-0.1,0.5-0.1c0.6,1.7,1.3,3.3,1.7,5c2.6,9.4,6,18.5,10,27.4
		c0.7,1.7,0.4,3.9,0.2,5.9c-0.5,4.8-1.3,9.7-1.9,14.5C170.7,250.2,170.2,250.2,169.7,250.2z M45.3,118.9c-3.6-4.1-8.2-5.6-13.1-6.6
		c-0.3,0-0.8,0.1-1.1,0.4c-3.6,3-7.9,5.4-9.6,10.4c-1.1,3.4-1.1,4.2,2.3,6.2C28.4,120.7,35.8,117.8,45.3,118.9z M28.4,129.9
		c1.6,2,4.1,2.8,6.7,2.1c2.7-0.8,5.2-2.1,7.8-3.2c2.8-1.2,3.1-2,2.4-5.2c-1.8,0-3.6,0-5.5,0c-3-0.1-5.4,0.9-7.4,3.2
		C31.3,127.9,29.9,128.7,28.4,129.9z"/>
	<path class="st0" d="M47.2,250.2c0.8-0.9,1.4-2.3,2.4-2.6c3.7-1.3,3.5-4.9,5.1-7.4c2.5-3.8,4.8-7.7,7.5-12c0.8,0.9,1.7,1.5,2.1,2.3
		c1,2.2,1.9,4.4,2.7,6.6c1.5,4.3,3.8,7.8,7.6,10.4c1,0.7,1.8,1.8,2.7,2.7C67.3,250.3,57.3,250.3,47.2,250.2L47.2,250.2z"/>
	<path d="M197.8,250.2c-0.5-5.2-3.4-9.4-5.5-14c-0.5-1.1-1.8-1.8-2.9-2.6c-3.2-2.1-6.6-4-9.7-6.2c-1.8-1.3-3.4-2.9-4.8-4.6
		c-2.7-3.4-5.1-7.1-7.6-10.5c0.9,0,3.9,2.5,4.9,4.5c2.8,5,6.3,9.2,11.6,11.9c2.9,1.5,6,3,8.2,5.4c2,2.1,2.9,5.2,4.2,7.9
		c0.1,0.3,0,0.9,0.2,1.2c2,2,1.8,4.6,2.4,7.1C198.4,250.2,198.1,250.2,197.8,250.2z"/>
	<path d="M46.7,178c-3.1-0.3-3-3.4-2.9-5.8c0.1-1.5,1.6-3.4,3-4.1c4.5-2.1,9.1-3.8,13.9-5.3c3.9-1.2,7.9-2,11.9-2.7
		c7.5-1.3,15-1.1,22.1,2.4c3.5,1.7,5.1,5.2,3.8,9.6c-1.5,5.1-3.5,10-7.2,14c-3.1,3.3-7.2,4.6-11.3,6c-5.9,1.9-12,2.3-18,2.2
		c-3,0-5.8-1.3-7.5-4.4c-1.7-3-4.1-5.5-6.1-8.4C47.6,180.7,47.4,179.6,46.7,178z M76.5,183.5c1,0,1.9,0,2.9-0.3
		c0.2-0.1,0.5-1.4,0.2-1.6c-0.4-0.4-1.5-0.8-1.8-0.6c-0.6,0.6-0.9,1.5-1.3,2.4C76.4,183.4,76.5,183.5,76.5,183.5
		c-0.4-0.4-0.9-1-1.4-1.5c-2.7,0-2.4,1.6-1.7,3.9C74.6,184.9,75.5,184.2,76.5,183.5z M69,173.6c-0.2-0.8-0.3-1.5-0.6-2.3
		c-0.3-0.7-0.7-1.7-1.3-2c-0.5-0.2-1.6,0.1-2.1,0.7c-0.9,0.9-1.5,2.1-2.2,3.2c-0.6-0.8-0.1-3.4-2.5-2.4c-0.6,0.2-1.3,1.5-1.3,2.3
		c0.1,1.7-1.1,3.8,1.1,5c0.2,0.1,0.6,0,0.9,0c2.7-0.7,5.4-1.4,8.2-2.1C69.1,175.1,69,174.3,69,173.6c1.1,0.3,2.3,1.3,3.2,1
		c0.8-0.2,1.5-1.6,1.8-2.7c0.2-0.9-0.1-2-0.5-3c-0.2-0.6-0.8-1.2-1.3-1.7c-0.7,0.5-1.6,0.9-1.9,1.6C69.5,170.4,69.3,172,69,173.6z
		 M94.9,175.7c-2.7,3.3-6.1,5.5-10,7.1c-6.4,2.7-12.8,5.3-20,5.4c-6,0.1-9.6-3-12.8-7.2c-1.1-1.4-1.9-1.9-3.8-1.5
		c0.5,0.8,1,1.4,1.4,2c1.7,2.3,3.8,4.5,5.1,7c1.8,3.3,4.8,4.5,8.2,4.5c6.7-0.1,13.4-0.7,19.6-3.1c2.3-0.9,4.5-2.1,6.5-3.5
		C92.8,183.8,93.9,179.8,94.9,175.7z M47.3,176.6c-0.1-1.5-0.2-2.6-0.3-3.8c-0.2-2,0.7-2.8,2.6-2.8c7.5,0.2,14-3.6,20.9-5.7
		c3.7-1.1,7.2-2.7,11.1-2.4c1.6,0.1,3.2,0,4.9,0c0-0.2,0-0.4,0-0.6c-4.6-0.6-9.2-1-13.8,0c-5.1,1-10.3,2.1-15.2,3.6
		c-3.7,1.1-7.1,2.9-10.6,4.5c-1.4,0.6-2.5,1.8-1.8,3.4C45.5,174.2,44.7,176.3,47.3,176.6z M77.6,165.8c-1,1-2,1.8-2.9,2.7
		c-1.3,1.4-0.8,2.9,0.4,3.7c1,0.7,2.3,2.2,3.6-0.2C80,169.7,80.1,168.4,77.6,165.8z M54.3,173.8c-1,2.2,0.2,3.7,1.2,5.2
		c0.2,0.4,2.4,0.2,2.5-0.1c0.3-1.2,0.5-2.6,0.2-3.7c-0.3-1-1.3-1.9-2-2.8c-0.2,0.1-0.4,0.3-0.7,0.4c0,0.7-0.1,1.5-0.1,2.5
		C55,174.6,54.7,174.2,54.3,173.8z M81.4,165.6c-0.3,1.5-1,2.9-0.8,4.1c0.1,0.8,1.5,1.4,2.4,2.1c0.7-1,1.6-1.8,1.9-2.9
		C85.5,166.9,83.8,166.4,81.4,165.6z M84.8,168.1c0.9,1.2,1.5,2,2.1,2.8c0.7-0.7,1.7-1.5,1.9-2.3c0.2-1.2,0-2.9-1.7-2.8
		C86.4,165.8,85.7,167,84.8,168.1z M80.5,182.8c1.7-0.7,3.1-1.4,5.3-2.2c-1.4-0.7-2.4-1.7-3-1.5C81.7,179.7,79.9,180.2,80.5,182.8z
		 M91.7,165.6c-0.3,0-0.7,0.1-1,0.1c0.1,1.4,0.3,2.8,0.5,4.2c0.5-0.2,1.3-0.3,1.5-0.7C93.6,167.7,93,166.5,91.7,165.6z M69.8,183.1
		c0,1.1,0,2.1,0,3.4c0.9-0.4,1.7-0.6,2.1-1.1c0.3-0.5,0-1.3,0-2.1C71.1,183.3,70.6,183.2,69.8,183.1z M68.3,183.7
		c-0.2,0-0.4,0-0.7,0c-0.3,0.6-0.8,1.3-0.8,1.9c0,0.3,0.7,0.7,1.1,1.1c0.4-0.4,1-0.9,1.1-1.4C69.1,184.8,68.6,184.3,68.3,183.7z"/>
	<path d="M61.8,87.3c3.2-0.7,5.7,0.8,8.3,2.4c1.7,1.1,4.3,2,6.2,1.7c6.1-0.7,11.3,1.7,16.4,4.3c3.1,1.5,3.8,4.4,1.9,7.2
		c-1.1,1.7-2.6,2.1-4.3,1c-2.9-1.9-6-2.8-9.5-2.4c-3.2,0.3-6.4,0.2-9.6,0.1c-0.8,0-1.7-0.3-2.4-0.8c-3.5-2.1-7.2-3.4-11.4-3.2
		c-2.2,0.1-4.5-0.5-6.7-0.9c-1.7-0.3-1.9-1.5-1.1-2.6C52.7,90.2,55.9,86.1,61.8,87.3z"/>
	<path d="M46,111.3c2.8,4.1,4.8,8.6,4.2,13.7c-0.9,6.8-1.9,13.5-5.2,19.7c-1.3,2.5-0.8,5.1,0.4,7.5c-0.2,0.1-0.5,0.2-0.7,0.3
		c-0.7-1.2-1.5-2.3-2.2-3.5c-1.5,1.6-0.9,3.8-0.2,5.6c0.3,0.9,2.1,1.3,3.2,1.9c0.1-0.2,0.3-0.5,0.4-0.7c-0.3-0.4-0.6-0.7-0.9-1.1
		c0.1-0.2,0.2-0.4,0.3-0.6c1.2,0.4,2.4,0.8,3.9,1.3c-3.3,2.8-6.4,2.6-8.2,0c-1-1.5-0.9-5.4,0.3-6.9c3.1-3.9,4.6-8.5,5.7-13.3
		c0.4-1.6,0.7-3.2,1.1-5.6c-5.2,3.4-7.3,8.4-10,12.7c-2.9,4.5-3.7,9.7-4.1,15.3c-4.4-5.2,8.5-29.2,15-29.1c-0.2-3-0.2-5.9-0.8-8.8
		c-0.6-2.8-1.9-5.5-2.9-8.2C45.6,111.5,45.8,111.4,46,111.3z"/>
	<path d="M67.6,117.3c-0.7-4.2,1.7-6.2,8.6-7.4c0-0.2,0-0.4,0-0.7c-1.9,0.1-4.1-0.2-5.8,0.6c-1.7,0.8-2.9,2.8-4.7,4.6
		c0.2-2.4,1.3-3.8,2.8-4.9c2.8-2.2,5.9-1.7,8.9-0.9c2.7,0.7,5.4,1.4,8.1,2.1c0.1,0,0.3,0.1,0.5,0c3.5-2,7.1-4,10.6-6
		c0.7-0.4,1.3-1,2.2-1.2c-1.7,3.5-5,4.9-8.2,6.5c-1.7,0.9-3.2,2.1-4.9,3c-0.9,0.4-2,0.6-3,0.5c-5-0.2-9.5,1.3-13.8,3.5
		C68.5,117,68.2,117.1,67.6,117.3z"/>
	<path d="M110.4,147c0.6,0.8,1.1,1.1,1.2,1.5c1.6,6,2.6,12.1,2.2,18.3c-0.1,2.2-1.2,4.3-1.8,6.4c-2.7,8.9-5.3,17.9-8,26.8
		c-0.2,0.9-0.8,1.6-1.2,2.5c-0.2,0-0.5-0.1-0.7-0.2c0.1-0.8,0.2-1.5,0.4-2.3c2.1-7.1,4.2-14.1,6.3-21.1c0.8-2.8,1.5-5.6,2.6-8.2
		c1.8-4.1,1.2-8.2,0.7-12.3c-0.3-3-1.2-6-1.7-8.9C110.3,148.8,110.4,148.1,110.4,147z"/>
	<path d="M102.4,154.5c0.5,0.5,1.1,0.7,1.3,1.1c0.6,1.7,1.5,3.5,1.5,5.3c0.1,7.7,0.3,15.4-0.4,23.1c-0.4,5-2.2,10-6,13.8
		c-1.2,1.2-2.2,2.6-3.2,4c-0.2-0.1-0.4-0.3-0.7-0.4c0.4-0.8,0.7-1.8,1.4-2.4c3.3-3.2,5.6-7,6.6-11.5c0.5-2.4,1.1-4.8,1.2-7.3
		c0.1-6.1,0.2-12.2,0-18.3C103.8,159.5,103,157.2,102.4,154.5z"/>
	<path d="M38.6,157.6c-0.4,0.7-0.8,1.6-1.3,2.2c-2.1,2.3-1.7,4.9-1.3,7.7c0.7,4.6,3.5,7.7,6.6,10.8c7,7,12.2,15.2,14.3,25.2
		c0,0.3,0.1,0.6,0.1,1c0,0.1-0.1,0.2-0.5,0.8c-0.4-0.6-0.8-1-0.9-1.5c-1.3-6.8-4.5-12.7-8.4-18.2c-1.9-2.7-4.3-5.2-6.8-7.4
		c-4.6-4.2-6.6-9.4-5.8-15.5c0.2-1.9,2-3.7,3-5.5C38,157.2,38.3,157.4,38.6,157.6z"/>
	<path d="M100.6,173.3c0.3-7.9-0.1-15.9-5.8-21.9c-5.2-5.6-10.1-11.9-18.7-12.8c0.1-0.3,0.2-0.6,0.3-1c1.6,0.3,3.3,0.4,4.7,1
		c5.5,2.3,9.6,6.7,13.7,10.8c5.7,5.8,7.2,13.2,7.1,21c0,0.9-0.1,1.9-0.2,2.8C101.4,173.3,101,173.3,100.6,173.3z"/>
	<path d="M147.4,113.6c5.3,3.4,4.7,8.4,4.1,13.7c2.4-1.2,3.6-4.3,6.8-3.8c-2.2,1.8-4.4,3.8-6.7,5.3c-1.3,0.8-1.3-0.5-1.3-1.4
		c0-2.2,0.4-4.5,0.1-6.7c-0.2-1.8-1.3-3.4-2-5.1C148,114.9,147.7,114.3,147.4,113.6z"/>
	<path d="M71.6,150.7c1.2-1.7,2.7-3.4,3.3-5.3c0.3-1.1-0.6-2.7-1.3-3.9c-0.9-1.5-3.1-1.4-6.6,0.2c0.2-2,1.3-2.7,3.8-2.6
		c3.3,0.2,5.5,2.4,5.5,5.7C76.4,148.1,74.3,150.5,71.6,150.7z"/>
	<path d="M86.8,116.1c-0.3,1-0.4,1.6-0.7,1.8c-4.7,3.4-9.6,6.2-15.8,4.5c-1.5-0.4-2.2-1.1-2.1-2.9c5,3.8,9.5,1.9,14-0.6
		C83.6,118.2,85,117.2,86.8,116.1z"/>
	<path d="M164.1,121.1c4-5.4,3-11.1,2-16.7c2.7,0.4,2.4,3.8,1.8,12C167.6,118.6,166,120.8,164.1,121.1z"/>
	<path d="M160.9,122c1.1-2.1,2.2-3.8,2.8-5.7c0.6-1.9,0.8-4.1,0.8-6.1c0-1.9-0.5-3.8-0.9-6.2C168,108.3,165.2,120,160.9,122z"/>
	<path d="M39.8,88.1c5.6-1.8,11-3.5,16.4-5.2c0.1,0.2,0.2,0.5,0.3,0.7c-0.1,0.2-0.3,0.6-0.5,0.7c-3.5,1.3-7,2.6-10.5,3.8
		C43.6,88.8,41.7,88.8,39.8,88.1z"/>
	<path d="M40.1,83.9c-2.7,1.4-5.5,2.7-8.1,4.3c-2.5,1.5-5.2,3-5.3,6.7c-0.3-0.1-0.7-0.3-1.1-0.5c0.3-1.2,0.2-2.8,1-3.3
		c3.9-2.8,8-5.3,12-7.8c0.3-0.2,0.8,0,1.3,0.1C40,83.6,40.1,83.7,40.1,83.9z"/>
	<path d="M47.6,105.5c-3.6-3.4-4-11.2-0.7-14C44.3,96.4,46.7,100.9,47.6,105.5z"/>
	<path d="M57.9,155.7c-0.6-0.4-1.5-0.6-1.7-1.1s0.2-1.4,0.7-1.8c2.9-3.1,6.7-3.9,10.7-3.5c0.8,0,1.6,0.7,2.6,1.2
		c-2.9,0.2-5.3,0.2-7.7,0.5C59.3,151.2,57.4,153.3,57.9,155.7z"/>
	<path d="M149.3,111.7c0.5-2.5,0.9-4.9,1.6-7.4c0.1-0.5,1.4-1.2,1.7-1c1.7,0.7,3.3,1.7,5,2.6c-0.1,0.2-0.2,0.5-0.3,0.7
		c-1.7-0.7-3.4-1.3-5.1-2c-0.7,2.5-1.3,4.9-1.9,7.4C149.9,111.9,149.6,111.8,149.3,111.7z"/>
	<path d="M89.1,111.6c4.8-0.1,8.9-3.4,13.6-3.6c0,0.2,0.1,0.4,0.1,0.6c-2.2,0.9-4.5,1.8-6.7,2.5c-2.2,0.7-4.5,1.1-6.8,1.6
		C89.3,112.4,89.2,111.9,89.1,111.6z"/>
	<path d="M62.3,80.4c-4.3,1-8.5,2.1-12.7,3.1c-0.1-0.4-0.2-0.8-0.3-1.1c4.3-1,8.5-2,12.8-3C62.1,79.6,62.2,80,62.3,80.4z"/>
	<path d="M100.3,113.2c-4,0.8-8,1.6-12,2.4c0-0.4-0.1-0.7-0.2-1.1c4-0.8,8.1-1.5,12.1-2.3C100.2,112.5,100.2,112.9,100.3,113.2z"/>
	<path d="M43.3,106.4c-1.2-2.7-2.3-5.4-3.5-8.1c0.3-0.1,0.7-0.3,1-0.4c1.2,2.7,2.4,5.4,3.6,8.1C44,106.1,43.7,106.3,43.3,106.4z"/>
	<path d="M57.1,111.5c0.3,2.5,0.6,4.7,1,7.7c-0.9-1.2-1.9-1.8-1.9-2.6C56,114.8,55.2,112.8,57.1,111.5z"/>
	<path d="M96.6,98.5c1.7,0.9,3.5,1.8,5.2,2.7c-0.1,0.3-0.3,0.6-0.5,0.9c-1.7-0.8-3.5-1.6-5.3-2.5C96.2,99.3,96.4,98.9,96.6,98.5z"/>
	<path class="st0" d="M45.3,118.9c-9.5-1.1-16.9,1.8-21.4,10.4c-3.3-2-3.4-2.8-2.3-6.2c1.6-5,6-7.4,9.6-10.4
		c0.3-0.2,0.8-0.5,1.1-0.4C37,113.3,41.7,114.8,45.3,118.9z"/>
	<path class="st0" d="M28.4,129.9c1.4-1.1,2.9-2,3.9-3.2c2-2.3,4.5-3.3,7.4-3.2c1.8,0,3.7,0,5.5,0c0.7,3.2,0.3,4-2.4,5.2
		c-2.6,1.1-5.1,2.5-7.8,3.2C32.5,132.7,30.1,131.9,28.4,129.9z"/>
	<path class="st0" d="M94.9,175.7c-1,4.1-2.1,8.1-5.7,10.7c-2,1.5-4.2,2.6-6.5,3.5c-6.3,2.4-13,3-19.6,3.1c-3.4,0-6.3-1.1-8.2-4.5
		c-1.4-2.5-3.4-4.6-5.1-7c-0.4-0.6-0.9-1.3-1.4-2c1.9-0.4,2.8,0.1,3.8,1.5c3.1,4.2,6.8,7.3,12.8,7.2c7.3-0.1,13.6-2.7,20-5.4
		C88.8,181.1,92.2,178.9,94.9,175.7z"/>
	<path class="st0" d="M47.3,176.6c-2.6-0.3-1.8-2.5-2.3-3.8c-0.6-1.7,0.5-2.9,1.8-3.4c3.5-1.6,6.9-3.4,10.6-4.5
		c5-1.5,10.1-2.6,15.2-3.6c4.6-0.9,9.2-0.5,13.8,0c0,0.2,0,0.4,0,0.6c-1.6,0-3.2,0.1-4.9,0c-4-0.3-7.4,1.3-11.1,2.4
		c-6.9,2-13.4,5.9-20.9,5.7c-1.9,0-2.9,0.8-2.6,2.8C47.1,174,47.2,175.2,47.3,176.6z"/>
	<path class="st0" d="M68.9,173.5c0,0.8,0.1,1.6,0.2,2.4c-2.8,0.7-5.5,1.4-8.2,2.1c-0.3,0.1-0.7,0.1-0.9,0c-2.2-1.3-0.9-3.3-1.1-5
		c0-0.7,0.6-2,1.3-2.3c2.4-1,1.9,1.6,2.5,2.4c0.7-1.1,1.3-2.3,2.2-3.2c0.5-0.5,1.6-0.9,2.1-0.7c0.6,0.3,1,1.3,1.3,2
		C68.6,172.1,68.7,172.9,68.9,173.5L68.9,173.5z"/>
	<path class="st0" d="M77.6,165.8c2.5,2.6,2.4,4,1.2,6.2c-1.3,2.4-2.7,0.9-3.6,0.2c-1.3-0.9-1.7-2.4-0.4-3.7
		C75.6,167.5,76.6,166.7,77.6,165.8z"/>
	<path class="st0" d="M69,173.6c0.4-1.5,0.6-3.2,1.2-4.6c0.3-0.7,1.3-1.1,1.9-1.6c0.4,0.6,1,1.1,1.3,1.7c0.3,1,0.7,2.1,0.5,3
		c-0.2,1-1,2.4-1.8,2.7C71.1,174.9,69.9,174,69,173.6C68.9,173.5,69,173.6,69,173.6z"/>
	<path class="st0" d="M54.3,173.8c0.3,0.4,0.6,0.8,1.1,1.5c0-1,0.1-1.7,0.1-2.5c0.2-0.1,0.4-0.3,0.7-0.4c0.7,0.9,1.7,1.7,2,2.8
		c0.3,1.2,0.1,2.5-0.2,3.7c-0.1,0.3-2.2,0.5-2.5,0.1C54.6,177.5,53.3,175.9,54.3,173.8z"/>
	<path class="st0" d="M81.4,165.6c2.3,0.8,4,1.3,3.5,3.2c-0.3,1.1-1.3,1.9-1.9,2.9c-0.8-0.7-2.2-1.3-2.4-2.1
		C80.4,168.4,81,167,81.4,165.6z"/>
	<path class="st0" d="M84.8,168.1c1-1,1.6-2.3,2.3-2.3c1.7,0,1.9,1.6,1.7,2.8c-0.1,0.8-1.2,1.5-1.9,2.3
		C86.3,170,85.7,169.3,84.8,168.1z"/>
	<path class="st0" d="M80.5,182.8c-0.6-2.7,1.2-3.1,2.4-3.7c0.5-0.2,1.5,0.7,3,1.5C83.7,181.5,82.2,182.1,80.5,182.8z"/>
	<path class="st0" d="M91.7,165.6c1.3,0.9,1.9,2.1,1,3.6c-0.2,0.4-1,0.5-1.5,0.7c-0.1-1.4-0.3-2.8-0.5-4.2
		C91.1,165.7,91.4,165.6,91.7,165.6z"/>
	<path class="st0" d="M76.5,183.5c0-0.1-0.1-0.2,0-0.2c0.4-0.8,0.7-1.7,1.3-2.4c0.2-0.2,1.4,0.2,1.8,0.6c0.2,0.3,0,1.5-0.2,1.6
		C78.4,183.4,77.4,183.3,76.5,183.5L76.5,183.5z"/>
	<path class="st0" d="M76.5,183.5c-1,0.7-1.9,1.4-3.1,2.3c-0.6-2.3-1-3.8,1.7-3.9C75.5,182.5,76,183,76.5,183.5
		C76.5,183.5,76.5,183.5,76.5,183.5z"/>
	<path class="st0" d="M69.8,183.1c0.8,0.1,1.4,0.1,2.2,0.2c0,0.8,0.2,1.6,0,2.1c-0.3,0.5-1.2,0.7-2.1,1.1
		C69.8,185.2,69.8,184.2,69.8,183.1z"/>
	<path class="st0" d="M68.3,183.7c0.2,0.6,0.7,1.2,0.7,1.7c0,0.5-0.7,0.9-1.1,1.4c-0.4-0.4-1.1-0.8-1.1-1.1c0-0.7,0.5-1.3,0.8-1.9
		C67.8,183.7,68.1,183.7,68.3,183.7z"/>
</g>
</svg>
