<?xml version="1.0" encoding="utf-8"?>
<!-- Generator: Adobe Illustrator 21.1.0, SVG Export Plug-In . SVG Version: 6.00 Build 0)  -->
<svg version="1.1" id="Layer_1" xmlns="http://www.w3.org/2000/svg" xmlns:xlink="http://www.w3.org/1999/xlink" x="0px" y="0px"
	 viewBox="0 0 377 171" style="enable-background:new 0 0 377 171;" xml:space="preserve">
<style type="text/css">
	.st0{fill:#FFF682;}
	.st1{fill:#F0532D;}
	.st2{font-family:'Bangers-Regular';}
	.st3{font-size:66.7996px;}
	.st4{fill:#333132;}
</style>
<g>
	<g>
		<path class="st0" d="M278.1,10c-38.8,31.4-67.6,37-89.3,0c-21.8,37-50.5,31.4-89.3,0c38.8,31.4,33.8,45.6-44.7,37.8
			C110.9,74.4,84.1,84.1,10,85.5c74.1-1.4,97.6,8.2,44.7,37.8c76.1-10,80,6.6,44.7,37.8c35.3-31.2,65.7-37.1,89.3,0
			c23.6-37.1,54-31.2,89.3,0c-35.3-31.2-31.4-47.7,44.7-37.8c-52.9-29.6-29.4-39.1,44.7-37.8c-74.1-1.4-100.9-11.1-44.7-37.8
			C244.3,55.6,239.2,41.4,278.1,10z"/>
		<path class="st1" d="M278.2,10.1c-3.4,2.8-6.9,5.6-10.5,8.2c-3.6,2.6-7.3,5.1-11.1,7.4c-7.6,4.6-15.9,8.5-24.8,10
			c-4.4,0.7-9,0.9-13.5,0c-4.5-0.9-8.7-2.7-12.5-5.2c-3.8-2.5-7.1-5.6-10-9.1c-2.9-3.4-5.5-7.1-7.8-11h1.6
			c-2.3,3.9-4.8,7.6-7.7,11.1c-2.9,3.5-6.2,6.6-10,9.2c-3.8,2.6-8.1,4.4-12.6,5.4c-4.5,1-9.2,0.9-13.7,0.2c-9-1.5-17.4-5.3-25.1-9.9
			c-3.9-2.3-7.6-4.7-11.3-7.3c-3.6-2.6-7.2-5.3-10.7-8.1l1.6-1.9c3.6,2.9,7.2,5.9,10.6,9.1c3.4,3.2,6.7,6.6,9.5,10.4
			c1.4,1.9,2.7,4,3.5,6.4c0.4,1.2,0.7,2.5,0.6,3.9c0,1.4-0.4,2.7-1.1,3.9c-0.7,1.2-1.7,2.2-2.7,2.9c-1,0.8-2.1,1.4-3.3,1.9
			c-2.3,1-4.6,1.6-6.9,2.1c-4.7,0.9-9.4,1.2-14,1.4c-4.7,0.1-9.3,0.1-14-0.1c-9.3-0.3-18.6-1.1-27.8-2l0.7-2.4
			c4.5,2.1,8.9,4.4,13.2,6.8c4.3,2.5,8.5,5.1,12.3,8.5c1.8,1.7,3.7,3.6,4.7,6.3c0.5,1.3,0.6,2.9,0.1,4.3c-0.5,1.4-1.5,2.5-2.5,3.4
			c-2.1,1.7-4.5,2.7-6.8,3.6c-2.4,0.8-4.8,1.5-7.2,2c-9.7,2.1-19.6,2.9-29.4,3.6c-9.8,0.6-19.7,0.9-29.6,1l0-1.4
			c9.7-0.1,19.5-0.1,29.2,0.2c4.9,0.2,9.7,0.4,14.6,0.9c4.9,0.4,9.7,1,14.5,2c2.4,0.5,4.8,1.1,7.1,2c2.3,0.9,4.6,1.9,6.4,3.8
			c0.9,0.9,1.6,2.1,1.9,3.4c0.2,1.3,0,2.6-0.5,3.8c-1,2.4-2.6,4.3-4.3,6.1c-3.5,3.5-7.5,6.4-11.5,9.1c-4.1,2.7-8.3,5.2-12.5,7.6
			l-0.3-0.9c9-1.2,17.9-2.2,27-2.7c4.5-0.3,9-0.4,13.6-0.3c4.5,0.1,9.1,0.5,13.6,1.4c2.2,0.5,4.5,1.1,6.6,2.1c2.1,1,4.1,2.5,5.2,4.7
			c1.2,2.2,1.1,4.8,0.5,7.1c-0.6,2.3-1.7,4.4-2.8,6.3c-2.4,3.9-5.4,7.4-8.5,10.7c-3.1,3.3-6.4,6.4-9.8,9.4l-1.1-1.2
			c6.7-5.9,13.7-11.5,21.4-16.1c7.6-4.6,16-8.4,25.1-9.6c4.5-0.6,9.1-0.4,13.6,0.6c4.5,1,8.7,2.9,12.5,5.4
			c7.6,5,13.5,12.2,18.4,19.7h-2.1c4.8-7.5,10.6-14.7,18.3-19.8c3.8-2.5,8.1-4.5,12.6-5.5c4.5-1,9.2-1.3,13.7-0.7
			c9.1,1.2,17.6,4.9,25.3,9.5c7.7,4.6,14.8,10.2,21.5,16.1l-2,2.2c-3.4-3-6.7-6.1-9.9-9.4c-3.1-3.3-6.2-6.8-8.7-10.8
			c-1.2-2-2.3-4.1-3-6.6c-0.3-1.2-0.5-2.5-0.5-3.8c0.1-1.3,0.4-2.7,1-3.9c1.3-2.5,3.5-4.1,5.6-5.1c2.2-1.1,4.5-1.8,6.8-2.3
			c4.6-1,9.2-1.3,13.7-1.4c4.6-0.1,9.1,0,13.7,0.2c9.1,0.5,18.1,1.5,27.1,2.6l-1,2.9c-4.3-2.4-8.5-4.9-12.6-7.6
			c-4.1-2.7-8.1-5.6-11.7-9.2c-1.8-1.8-3.5-3.8-4.5-6.4c-0.5-1.3-0.8-2.8-0.5-4.4c0.3-1.6,1.1-2.9,2.1-3.9c1-1,2.1-1.8,3.3-2.4
			c1.2-0.6,2.3-1.2,3.5-1.6c2.4-0.9,4.8-1.5,7.2-2c4.9-1,9.7-1.6,14.6-2c4.9-0.4,9.8-0.7,14.7-0.8c9.8-0.3,19.5-0.2,29.3,0l-0.1,2.8
			c-9.9-0.2-19.7-0.6-29.6-1.3c-9.8-0.7-19.7-1.7-29.4-3.8c-2.4-0.6-4.9-1.2-7.2-2.1c-2.4-0.9-4.8-1.9-6.8-3.7c-1-0.9-2-2-2.5-3.4
			c-0.5-1.4-0.4-3.1,0.2-4.3c1-2.6,2.9-4.5,4.8-6.2c3.8-3.3,8.1-6,12.4-8.4c4.3-2.4,8.8-4.6,13.2-6.7l0.5,1.7
			c-9.2,0.9-18.5,1.6-27.8,1.8c-4.6,0.1-9.3,0.2-13.9,0c-4.6-0.2-9.3-0.6-13.9-1.5c-2.3-0.5-4.6-1.1-6.7-2.1c-2.1-1-4.3-2.3-5.6-4.5
			c-0.6-1.1-0.9-2.3-1-3.5c0-1.2,0.2-2.4,0.6-3.6c0.8-2.3,2-4.3,3.4-6.2c2.8-3.8,6-7.1,9.4-10.2c3.4-3.2,7-6.1,10.6-9L278.2,10.1z
			 M278.2,10.1c-3.6,2.9-7.1,6-10.4,9.2c-3.3,3.2-6.5,6.5-9.2,10.3c-1.3,1.9-2.5,3.9-3.2,6c-0.7,2.1-0.8,4.5,0.4,6.3
			c1.1,1.9,3.1,3.1,5.2,4c2.1,0.9,4.3,1.5,6.5,1.9c4.5,0.8,9.1,1.2,13.7,1.3c4.6,0.1,9.2,0.1,13.8-0.1c9.2-0.4,18.4-1.2,27.6-2.1
			l5.2-0.5l-4.7,2.3c-4.4,2.1-8.8,4.4-13,6.8c-4.2,2.5-8.4,5.1-11.9,8.3c-1.7,1.6-3.4,3.4-4.1,5.4c-0.4,1-0.4,2-0.1,2.9
			c0.3,0.9,1,1.7,1.8,2.4c1.7,1.4,3.9,2.4,6.2,3.2c2.3,0.8,4.6,1.4,7,1.9c9.5,2,19.3,2.9,29.1,3.6c9.8,0.6,19.6,0.9,29.4,1.1
			l-0.1,2.8c-9.7-0.1-19.4-0.1-29.1,0.2c-9.7,0.4-19.4,1-28.8,2.9c-2.3,0.5-4.6,1.1-6.8,1.9c-2.2,0.8-4.3,1.8-5.7,3.3
			c-0.7,0.7-1.2,1.5-1.3,2.4c-0.1,0.9,0,1.8,0.4,2.7c0.8,1.9,2.2,3.7,3.9,5.4c3.3,3.3,7.2,6.1,11.2,8.8c4,2.7,8.2,5.1,12.4,7.5
			l7,3.9l-8-1c-8.9-1.2-17.9-2.1-26.8-2.6c-4.5-0.2-9-0.3-13.4-0.2c-4.4,0.1-8.9,0.5-13.1,1.4c-2.1,0.5-4.2,1.1-6,2
			c-1.8,0.9-3.4,2.2-4.3,3.7c-0.8,1.6-0.9,3.5-0.3,5.5c0.5,2,1.5,3.9,2.6,5.7c2.3,3.7,5.2,7.1,8.2,10.3c3.1,3.2,6.3,6.3,9.7,9.3
			l-2,2.2c-6.6-5.8-13.5-11.3-21-15.8c-7.5-4.5-15.6-8.1-24.1-9.2c-4.3-0.5-8.6-0.4-12.7,0.6c-4.2,0.9-8.1,2.7-11.7,5.1
			c-7.2,4.7-12.9,11.6-17.7,18.9l-1.1,1.6l-1-1.6c-4.7-7.4-10.3-14.3-17.6-19.1c-3.6-2.4-7.6-4.2-11.7-5.2c-4.2-1-8.6-1.2-12.9-0.7
			c-8.6,1.1-16.8,4.7-24.4,9.2c-7.6,4.5-14.6,10-21.2,15.8l-1.1-1.2c3.4-3,6.7-6,9.8-9.2c3.1-3.2,6.1-6.6,8.4-10.4
			c1.2-1.9,2.2-3.9,2.7-5.9c0.6-2.1,0.6-4.3-0.4-6.1c-0.9-1.9-2.7-3.2-4.6-4.2c-2-1-4.1-1.6-6.3-2.1c-4.4-1-8.8-1.3-13.3-1.4
			c-4.5-0.1-9,0-13.5,0.2c-9,0.5-18,1.4-26.9,2.6l-2.5,0.3l2.2-1.2c4.2-2.4,8.4-4.8,12.5-7.5c4-2.7,8-5.5,11.4-8.9
			c1.7-1.7,3.2-3.6,4.1-5.8c0.4-1.1,0.6-2.2,0.4-3.3c-0.2-1.1-0.8-2.1-1.6-2.9c-1.6-1.6-3.9-2.7-6.1-3.5c-2.2-0.8-4.6-1.4-7-1.9
			c-4.7-1-9.6-1.5-14.4-2c-4.8-0.4-9.7-0.7-14.5-0.8c-9.7-0.3-19.4-0.2-29.2,0l0-1.4c9.8-0.2,19.7-0.6,29.5-1.3
			c9.8-0.7,19.6-1.7,29.1-3.8c2.4-0.5,4.7-1.2,7-2c2.2-0.8,4.5-1.8,6.1-3.3c0.8-0.7,1.5-1.6,1.8-2.5c0.3-0.9,0.2-1.9-0.1-2.9
			c-0.8-2-2.4-3.8-4.2-5.3c-3.6-3.1-7.8-5.7-12-8.1c-4.2-2.4-8.6-4.6-13.1-6.7l-6.5-3.1l7.2,0.7c9.2,0.9,18.4,1.6,27.6,1.9
			c4.6,0.2,9.2,0.2,13.8,0c4.6-0.2,9.2-0.5,13.6-1.4c2.2-0.4,4.4-1,6.4-1.9c2-0.9,3.8-2,4.8-3.7c1-1.6,0.9-3.6,0.3-5.6
			c-0.7-2-1.8-3.9-3.1-5.7c-2.6-3.6-5.8-6.9-9.1-10.1c-3.3-3.2-6.8-6.1-10.4-9l1.6-1.9c3.4,2.8,6.9,5.5,10.5,8.1
			c3.6,2.6,7.3,5,11.1,7.3c7.6,4.5,15.7,8.2,24.2,9.7c4.3,0.7,8.6,0.8,12.9-0.1c4.2-0.8,8.3-2.5,11.9-4.9c7.2-4.8,12.7-12,17.3-19.5
			l0.8-1.3l0.8,1.3c4.4,7.6,9.9,14.7,17.1,19.7c3.6,2.5,7.7,4.2,11.9,5.1c4.3,0.9,8.7,0.9,13,0.2c8.7-1.3,16.9-5.1,24.6-9.5
			c3.8-2.2,7.5-4.7,11.2-7.2c3.6-2.6,7.2-5.2,10.7-8L278.2,10.1z"/>
	</g>
	<text transform="matrix(0.9869 -0.1615 0.1615 0.9869 119.9193 122.5579)" class="st1 st2 st3">BLAM!</text>
	<text transform="matrix(0.9869 -0.1615 0.1615 0.9869 117.8731 120.1409)" class="st4 st2 st3">BLAM!</text>
</g>
</svg>
