<?xml version="1.0" encoding="utf-8"?>
<!-- Generator: Adobe Illustrator 21.1.0, SVG Export Plug-In . SVG Version: 6.00 Build 0)  -->
<svg version="1.1" id="Layer_1" xmlns="http://www.w3.org/2000/svg" xmlns:xlink="http://www.w3.org/1999/xlink" x="0px" y="0px"
	 viewBox="0 0 250 170" style="enable-background:new 0 0 250 170;" xml:space="preserve">
<style type="text/css">
	.st0{fill:#FFFFFF;stroke:#333333;stroke-width:2;stroke-miterlimit:10;}
</style>
<path class="st0" d="M235.5,74V31c0-11-9-20-20-20h-181c-11,0-20,9-20,20v43c0,11,9,20,20,20h112.3c11,0,26.5,6.2,34.4,13.8
	l53.8,51.7l-9.3-17.7c0,0,0,0,0,0l-1.8-3.4l-23.1-44.2l-0.1-0.1c0-0.1,7.7-0.1,17.3-0.1C227.7,94,235.5,85,235.5,74z"/>
</svg>
