<?xml version="1.0" encoding="utf-8"?>
<!-- Generator: Adobe Illustrator 21.1.0, SVG Export Plug-In . SVG Version: 6.00 Build 0)  -->
<svg version="1.1" id="Layer_1" xmlns="http://www.w3.org/2000/svg" xmlns:xlink="http://www.w3.org/1999/xlink" x="0px" y="0px"
	 viewBox="0 0 50 50" style="enable-background:new 0 0 50 50;" xml:space="preserve">
<style type="text/css">
	.st0{fill:#7D8393;}
</style>
<g>
	<path class="st0" d="M49.1,19c0-0.1,0-0.3-0.1-0.4c-0.9-1-1.8-2-2.8-2.9c-1.1-0.9-2.2-1.8-2.6-3.3c-0.5-2-1.6-3.7-3.2-5.1
		c-1.2-1-2.5-1.7-4.1-1.8c-0.2,0-0.5-0.1-0.7-0.2c-4.5,0-8.9,0-13.4,0c-0.5,0.1-1.1,0.2-1.6,0.3C17.4,6,14.3,6.2,11.3,7
		C9,7.6,6.9,8.5,5.3,10.3c-0.4,0.5-0.7,0.9-0.6,1.7c0.1,0.9-0.2,1.8-0.9,2.5c-0.5,0.5-1.1,1-1.7,1.5C1.5,16.6,1,17.2,1,18.1
		c0,0.9,0.1,1.9,0,2.8c-0.1,1.1,0.3,2,0.9,2.9c0.5,0.9,1,1.9,1.4,2.8c0.1,0.3,0.2,0.8,0.2,1.2c0,1.7-0.1,3.3-0.2,5
		c-0.1,1.7-0.5,3.5-0.6,5.2C2.5,40,3,41.7,4.8,42.9c0.8,0.5,1.7,1,2.5,1.5c0.2,0.1,0.3,0.2,0.4,0.3c4.1,0.4,6.6,0.3,8.9,0
		c0.5-0.2,1-0.5,1.6-0.6c1.7-0.4,3.4-0.7,5.1-1.1c1.3-0.3,2.5-0.7,3.7-1.4c1.4-0.8,2.8-1.4,4.3-2.1c1-0.5,2.1-0.8,3.1-1.2
		c2.1-1,4.1-2.2,6-3.7c1.4-1.1,2.7-2.3,3.4-4c0.6-1.6,1.6-2.9,2.8-4.1c0.6-0.6,1.1-1.3,1.6-2.1c0.3-0.4,0.7-0.9,0.7-1.4
		C49.1,21.7,49.1,20.4,49.1,19z M44.2,26.4c0.1,0.1,0.1,0.1,0.2,0.2c0.3-0.1,0.5-0.2,0.8-0.3c0,0,0,0,0.1,0.1
		c-0.4,0.6-0.8,1.2-1.2,1.8c-0.8,1.2-1.5,2.4-2.3,3.5c-1.1,1.5-2.5,2.7-4,3.7c-2.9,1.8-6.2,2.9-9.2,4.5c-1,0.5-2,1.1-3.1,1.6
		c-0.4,0.2-0.8,0.2-1.2,0.2c-1.4-0.1-2.6,0.4-3.9,0.7c-2,0.5-3.9,1.1-5.9,1.5c-1,0.2-2,0.2-3,0.2c-2-0.1-3.9-0.4-5.5-1.7
		C5,41.7,4.3,41,3.9,40.1c-0.2-0.5-0.2-1.2-0.1-1.8c0-0.7,0.1-1.5,0.2-2.2c0.1-1.3,0.3-2.6,0.4-4c0.1-1.4,0-2.8,0-4.2
		c0-1.1-0.2-2.1-0.6-3.1c-0.2-0.5-0.5-0.9-0.7-1.4c-0.1-0.2-0.2-0.5-0.3-0.7c0.9,0.5,1.9,0.9,2.8,1.4c-0.2-0.6-0.7-0.9-1.2-1
		c-1.2-0.3-1.8-1.7-1.8-2.6c0-1,0.4-1.9,0.9-2.7c0.9-1.3,2.5-1.9,4.1-1.6c0.6,0.1,1.3,0.1,2-0.4c-0.7,0-1.4,0-2,0
		c-0.6,0-1.2,0-1.8,0.1c-0.3,0-0.6,0-0.7,0.1c-1.7,1.1-2.7,2.5-2.6,4.6c0,0.6,0.2,1.2,0.3,1.8c-1.1-1.6-1.1-4-0.2-5.3
		c0.4-0.6,1-1,1.5-1.5c0.6-0.5,1.2-1,1.6-1.8c0.3-0.7,0.2-1.3,0.1-2c0-0.1,0-0.3,0.1-0.4C7.5,9.6,9.5,8.3,12,7.8
		c0.7-0.1,1.4-0.1,2.1-0.1c0.2,0,0.4,0,0.5,0c1.2-0.7,2.6-0.6,4-0.7c1.9-0.1,3.7-0.3,5.6-0.4c1.5-0.1,3.1-0.1,4.6-0.1
		c1.5,0,3.1-0.1,4.6,0C35,6.5,36.6,6.5,38.1,7c1,0.4,1.8,1,2.3,1.9c0.7,1.1,1.2,2.3,1.9,3.4c0.6,1,1.2,1.9,1.8,2.8
		c0,0.1,0.1,0.1,0.2,0.2c-0.2,0.1-0.4,0.2-0.6,0.2c2.6,0.9,4.2,2.6,4.4,5.4C48.4,23.7,46.8,25.4,44.2,26.4z"/>
	<path class="st0" d="M42.8,21.4c-0.3-0.2-0.7-0.2-1.1-0.3c-0.5-0.1-0.8-0.3-0.7-0.9c0-0.2-0.1-0.4-0.1-0.7
		c-0.1-0.6-0.3-0.8-0.9-0.8c-0.1,0.6-0.4,1.1-0.9,1.5c-1.2,0.9-2.6,1.5-4,2c-3.3,1-6.7,2.1-10,2.9c-2,0.5-4.1,0.8-6.2,1
		c-1.5,0.1-2.9,0-4.4-0.2c-2-0.2-3.7-1-5.2-2.5c-0.5-0.5-0.6-1-0.7-1.6c0-0.4,0-0.8-0.1-1.2c0-0.2-0.3-0.3-0.4-0.5
		c-0.1,0.2-0.3,0.4-0.4,0.6c-0.1,0.3-0.1,0.8-0.3,1c-0.8,1.1-0.9,2.3-1.1,3.5c-0.1,1-0.1,2,0,2.9c0.1,1.1,0.2,2.3,0.4,3.4
		c0.3,1.9,1.4,3,3.3,3.6c2,0.6,4,0.8,6,0.9c2.4,0.1,4.9-0.1,7.3-0.2c1.2-0.1,2.4-0.3,3.6-0.6c2.1-0.5,4-1.2,5.9-2.3
		c2-1.2,3.7-2.6,5-4.5c1-1.4,2.1-2.8,3.1-4.2c0.1-0.1,0.1-0.3,0.1-0.4c-0.2-0.6,0.3-1.1,0.4-1.6c0,0,0.2-0.1,0.4,0
		c0.3,0,0.6,0.2,1,0.1c0.3,0,0.6-0.2,0.9-0.3C43.3,21.9,43.1,21.6,42.8,21.4z M34.4,23.8c0.2,0.8-0.3,1.8-1.2,2.3
		c-0.7,0.4-1.6,0.7-2.4,1c-0.7,0.2-1.4,0.4-2.2,0.7c-0.2-0.7-0.3-1.4-0.5-2.2C30.3,24.9,32.4,24.3,34.4,23.8z M17.9,27.4
		c0.6-0.1,1.1-0.1,1.6-0.2c0.5-0.1,1-0.2,1.6-0.2c0,0.8,0,1.4,0,2c-1.2,0-2.3,0-3.6,0C17.7,28.4,17.8,27.9,17.9,27.4z M13.2,26.9
		c1.2,0.1,2.3,0.3,3.5,0.4c0,0.4,0,0.9,0,1.3c0,0.1-0.2,0.4-0.3,0.4c-0.8,0-1.6-0.1-2.3-0.1c-0.4,0-0.9-0.1-1.3-0.1
		C12.9,28.2,13,27.5,13.2,26.9z M10.2,25.7c0.7,0.3,1.3,0.5,1.8,0.8c0.1,0,0.2,0.3,0.1,0.4c0,0.2-0.1,0.4-0.3,0.6
		c-0.2,0.4-0.4,0.7,0.1,1.2c-0.3,0-0.5,0-0.7-0.1c-0.1,0-0.2-0.1-0.3-0.1c-0.7,0.1-0.7-0.4-0.8-0.8C10.1,27.1,10.2,26.5,10.2,25.7z
		 M8.6,33.2c-0.3-0.7-0.7-1.4-1-2.2c0.6,0.2,1,0.9,1.2,2.1C8.7,33.2,8.7,33.2,8.6,33.2z M8.2,26.7c0.2-0.6,0.4-1.2,0.7-1.8
		c0.6,0.3,0.4,0.8,0.3,1.2c0,0.6-0.2,1.3-0.3,1.9C8.3,27.9,8,27.4,8.2,26.7z M9.1,33.7c0-0.1,0-0.1,0.1-0.2c0.1,0,0.1,0.1,0.2,0.1
		c0.5,0.1,0.7-0.2,0.6-0.7c-0.1-0.4-0.2-0.8-0.3-1.2c1.1,0.5,1.2,1.6,1.7,2.7C10.5,34.1,9.8,33.9,9.1,33.7z M12.5,34.5
		c0.2-0.7-0.2-1.3-0.6-1.8c-0.1-0.1-0.1-0.3-0.1-0.4c0.2,0,0.4-0.1,0.5-0.1c0.3,0.1,0.7,0.2,1,0.4c0.3,0.7,0.6,1.5,0.9,2.4
		C13.5,34.7,13,34.6,12.5,34.5z M16.4,35.1c-0.6-0.1-1.2-0.3-1.3-1.1c-0.1-0.5-0.5-1-0.7-1.5c0.5-0.4,1.1-0.2,1.6-0.2
		c0.3,0,0.5,0,0.8,0.1c0.1,0,0.3,0.2,0.3,0.3c0.1,0.3,0.2,0.7,0.2,1c0.1,0.4,0.2,0.8,0.3,1.4C17.2,35,16.8,35.1,16.4,35.1z M21.8,35
		c-0.7,0.1-1.3,0.1-2,0.1c-0.4,0-0.7-0.1-1.2-0.1c-0.2-0.9-0.3-1.9-0.5-2.9c0.5,0,1,0,1.5,0c0.7,0,1.4,0,2-0.5
		c0.2-0.2,0.6,0.1,0.6,0.5c0,0.3,0,0.6,0,0.9c0,0.4-0.1,0.9,0.1,1.3C22.4,34.8,22.1,34.9,21.8,35z M22.1,28.7c0-0.5,0-0.9,0-1.4
		c0-0.1,0.2-0.3,0.4-0.4c1.2-0.3,2.4-0.5,3.6-0.7c0.2,0,0.5-0.2,0.7-0.1c0.5,0.1,0.6,0.5,0.6,1c0,0.4,0.1,0.8,0.2,1.2
		c-1.1,0.2-2.2,0.5-3.3,0.7C23.7,29.1,23,29,22.4,29C22.3,29,22.1,28.8,22.1,28.7z M23.3,34.8c0-0.8-0.1-1.6-0.1-2.3
		c0-1.1,0-1.1,1.1-1.4c1.1-0.3,2.1-0.7,3.1-1c0.2-0.1,0.3-0.2,0.5-0.2c0.5,1.3,0.9,2.5,1.4,3.7C27.2,34.2,25.3,34.8,23.3,34.8z
		 M30.5,33.1c-0.4-0.7-0.7-1.4-1.1-2.1c-0.1-0.1-0.1-0.3-0.1-0.4c-0.1-0.8,0-1,0.8-1.2c1.4-0.5,2.8-0.9,4.1-1.9
		c0.1,0.5,0.1,0.9,0.2,1.2c0,0.5,0.1,0.9,0.7,1.3C33.5,31,32,32,30.5,33.1z M38.3,26c-0.4,0.6-0.9,1.2-1.3,1.8
		c-0.2,0.3-0.4,0.6-0.7,0.9c-0.5,0.5-0.7,0.5-1-0.2c0-0.1-0.1-0.3-0.1-0.4c0.1-0.7,0.5-1.1,1-1.5c0.6-0.3,1.1-0.6,1.7-1
		c0.1-0.1,0.2,0,0.4,0C38.3,25.8,38.3,25.9,38.3,26z M39.1,23.8c-1.1,0.8-2.4,1.3-3.6,1.7c0-0.6,0-1.2,0.1-1.8
		c0-0.2,0.1-0.5,0.3-0.6c1.3-0.7,2.7-1.3,4-2C40.5,22.1,39.9,23.2,39.1,23.8z"/>
	<path class="st0" d="M19,17.5c0.4-0.1,0.7-0.4,1-0.6c0.3-0.3,0.1-0.6-0.3-0.6c-0.3,0-0.7,0-1,0.1c-0.3,0.1-0.5,0.1-0.7-0.2
		c-0.2-0.3-0.5-0.6-0.8-0.7c-1.6-1-3.3-1.3-5.1-0.9c-0.9,0.2-1.7,0.6-1.9,1.8c0.7,0.1,1.5,0.3,2.2,0.4c1.1,0.1,2.2,0.2,3.3,0.3
		c1.4,0.2,1.7,0.6,1.7,2c0,0.1,0,0.2,0,0.3c-0.1,0.2-0.1,0.4-0.3,0.5c-1.1,0.8-2.1,1.5-3.2,2.2c-0.7,0.5-1.4,1-2.1,1.5
		c0,0,0,0,0,0.1c0.7-0.3,1.5-0.6,2.1-0.9c0.2,0.3,0.4,0.6,0.6,0.6c0.3,0,0.5-0.2,0.8-0.4c0.5,1.1,1.3,1.8,2.3,2.3
		c0.3,0.1,0.7,0.2,1,0.1c0.8,0,1-0.6,1.2-1.2c-0.2-0.3-0.5-0.3-0.8-0.1c-0.2,0.2-0.6,0.4-0.8,0.3c-0.3-0.1-0.6-0.4-0.9-0.6
		c-0.6-0.4-1-0.9-1.2-1.6c0-0.2,0-0.4,0.1-0.5c0.5-0.4,1.1-0.8,1.6-1.1c0.3-0.2,0.4-0.4,0.4-0.8c0-0.5,0-1,0-1.5
		C18.3,17.8,18.5,17.6,19,17.5z M11.9,15.7c0.7-0.5,1.4-0.1,2.1-0.1C13.3,15.8,12.6,15.7,11.9,15.7z"/>
	<path class="st0" d="M33.5,16.8c0.8,0.2,1.5,0.4,2.3-0.4c-0.3-0.5-0.6-1.2-1.1-1.6c-1-1-2.4-1.5-3.8-1.5c-1.1,0-2.2,0-3.3,0.2
		c-1.4,0.2-2.6,0.8-3.5,1.8c-0.8,1-1,1.5,0.2,2.3c0.3,0.2,0.6,0.4,0.9,0.6c0.7-0.3,1.3-0.6,2-0.9C29.3,16.5,31.3,16.1,33.5,16.8z
		 M34.5,15.7c0,0.1,0,0.1,0,0.2c-0.5-0.1-0.9-0.2-1.5-0.4C33.4,15,33.8,15.1,34.5,15.7z M26.1,16.6c-0.3,0.2-0.7,0.2-1.1,0.2
		c-0.1-0.7,0-1.2,0.6-1.4c0.9-0.4,1.8-0.8,2.7-1.2c0.1,0,0.4,0.1,0.4,0.3c0.1,0.4,0.1,0.7,0.2,1.2C27.8,15.5,27,16.2,26.1,16.6z"/>
	<path class="st0" d="M31.6,17.6c-0.3-0.4-0.8-0.7-1.4-0.6c0,0.8,0.4,1.4,0.9,1.9c1.3,1,2.7,1.3,4.3,0.9c0.9-0.3,1.8-0.7,2.7-1.1
		c1.2-0.6,2.5-0.9,3.8-0.6c1,0.2,1.7,0.7,2.1,1.7c0.4,1.1,0.5,2.1-0.2,3.1c-0.3,0.4-0.2,0.9-0.1,1.4c1.3-1,1.9-2.3,1.5-4
		c-0.6-2.7-2.4-3.8-4.9-3.3c-1.3,0.3-2.6,0.8-3.8,1.3C34.8,18.9,33.1,19.2,31.6,17.6z"/>
	<path class="st0" d="M37.8,33.9c-0.1,0.1-0.3,0.2-0.4,0.2c-3.2,1.7-6.5,3-10,4.1c-2.7,0.8-5.3,1.4-8.1,1.7
		c-1.6,0.1-3.3,0.3-4.9,0.4c-1.2,0-2.4-0.1-3.6-0.2c-1.3-0.2-2.6-0.5-3.7-1.4c-0.5-0.4-1-0.9-0.8-1.7c0-0.1-0.1-0.3-0.1-0.4
		c-0.1,0-0.1,0-0.2,0c0.1,0.7-0.3,1.5,0.5,2.1C7,39,7.3,39.3,7.8,39.5c1.4,0.7,3,0.9,4.5,0.9c0.9,0,1.8,0,2.7-0.1
		c1.5-0.1,3-0.1,4.4-0.3c1.9-0.2,3.9-0.5,5.8-1c3.6-0.9,7.1-2,10.4-3.7c0.9-0.5,1.8-1,2.7-1.6c0,0,0-0.1-0.1-0.1
		C38.1,33.7,37.9,33.8,37.8,33.9z"/>
	<path class="st0" d="M8.5,36.4c0,0-0.1,0.1-0.1,0.1c0.4,0.4,0.8,0.9,1.2,1.2c1.4,1,3,1.2,4.6,1.2c2.2,0,4.5-0.1,6.7-0.2
		c1.1-0.1,2.3-0.1,3.4-0.3c2.1-0.4,4.2-1.2,6.1-2.2c1.3-0.7,2.6-1.4,4-2.1c0.4-0.2,0.8-0.4,1.2-0.6c-0.1-0.1-0.2,0-0.3,0
		c-1.3,0.6-2.5,1.1-3.8,1.7c-1.5,0.7-3,1.4-4.6,2c-2.7,1.1-5.6,1.2-8.5,1.3c-1.7,0.1-3.5,0-5.2-0.2C11.5,38.3,9.8,37.8,8.5,36.4z"/>
	<path class="st0" d="M9.5,20.5c0,0.1,0.3,0.3,0.4,0.3c0.6,0,1.3,0,1.9-0.1c0.4-0.1,0.7-0.3,1-0.6c0.2-0.2,0.1-0.6,0.2-0.8
		c-0.3,0-0.6-0.1-0.9,0c-0.3,0.1-0.5,0.3-0.8,0.4c-0.1,0.1-0.4,0-0.5-0.1c-0.3-0.2-0.5-0.5-0.9-0.7c-0.8-0.3-1.7-0.6-2.5-0.7
		c-1-0.1-2.3,0.3-2.4,1.6c0.8-0.2,1.5-0.3,2.3-0.4C8.4,19.1,9.2,19.5,9.5,20.5z"/>
	<path class="st0" d="M12.2,9c0.7,0.2,1.4,0.4,2.1,0.4c2,0,4.1-0.1,6.1-0.2c1.7-0.1,3.3-0.5,5-0.6c1.4-0.1,2.8,0.1,4.1,0.3
		c2.7,0.5,5,1.7,7,3.6c0.2,0.2,0.6,0.3,0.9,0.4c0-0.1,0.1-0.1,0.1-0.2c-0.4-0.4-0.8-0.7-1.2-1.1c-2.8-2.4-6.1-3.4-9.8-3.5
		c-1.4,0-2.8,0.2-4.3,0.4c-1.3,0.1-2.6,0.2-3.9,0.4c-1.4,0.2-2.8,0-4.2-0.2c-0.9-0.1-1.7-0.2-2.6-0.2c-0.6,0-0.9,0.3-1,1
		C11.1,9.2,11.5,8.8,12.2,9z"/>
	<path class="st0" d="M19.4,7.8c1.1-0.1,2.2-0.2,3.3-0.3c1.5-0.2,3.1-0.4,4.6-0.4c2,0,3.9,0.4,5.6,1.4c1.9,1,3.8,2.3,5.6,3.4
		c-0.6-0.7-1.4-1.4-2.3-1.9c-1.3-0.7-2.5-1.4-3.9-2c-1.5-0.7-3.1-1.1-4.7-1.1c-1,0-2,0-3,0.1c-0.7,0-1.3,0.1-2,0.2
		c-1.3,0.2-2.7,0.3-4,0.5c-0.8,0.1-1.5,0.1-2.3,0.2c0,0,0,0,0,0.1C17.4,7.9,18.4,7.9,19.4,7.8z"/>
	<path class="st0" d="M25.8,23.3c-0.2,0.2-0.4,0.6-0.4,0.9c0,0.3,0.6,0.3,1,0.1c0.1-0.1,0.3-0.2,0.4-0.3c0.2-0.5,0.4-1.1,0.6-1.6
		c-0.2-0.4-0.2-0.9-0.4-1.1c-0.8-0.6-1.7-0.7-2.6-0.4c-0.2,0-0.3,0.2-0.4,0.3c0.2,0.2,0.3,0.4,0.5,0.5c0.4,0.1,0.7,0.1,1.1,0.1
		c0.4,0,0.6,0.1,0.7,0.6C26.3,22.8,26.2,23.1,25.8,23.3z"/>
	<path class="st0" d="M22,22.6c-0.4,0.1-0.7,0.4-0.8,0.8c0.5,0.3,1.1,0.2,1.6,0.2c0.7-0.1,1.3-0.2,1.9,0.3c0.1-0.2,0.2-0.3,0.2-0.4
		c0-0.3,0.2-0.7-0.2-0.8C23.8,22.4,22.9,22.3,22,22.6z"/>
	<path class="st0" d="M30.2,10.5c2,0.3,3.8,1.1,5.3,2.5c-0.8-1.1-1.8-1.8-3.1-2.2C31,10.2,29.5,9.9,28,10c-1.1,0-2.2,0.1-3.3,0.2
		c-0.1,0-0.3,0.1-0.4,0.2C26.3,9.9,28.2,10.1,30.2,10.5z"/>
	<path class="st0" d="M10.5,12.3c0.7-1.1,1.8-1.5,3-1.5c1.6-0.1,3.2,0,4.8,0.5c-0.2-0.2-0.5-0.3-0.7-0.4c-1-0.4-2.1-0.4-3.3-0.4
		c-1.3,0-2.4,0.4-3.5,1c-0.8,0.4-0.6,1.3-1,1.9c0,0,0.1,0.2,0.2,0.3C10.1,13.1,10.3,12.7,10.5,12.3z"/>
	<path class="st0" d="M46.8,18.4c-0.3-0.5-0.6-0.9-0.9-1.3c-0.5-0.7-1.6-1.2-2.3-1.1c-0.4,0.1-0.7,0-1.1,0c-0.7,0-1.4-0.2-2,0.2
		c0.4,0.1,0.7,0.1,1.1,0.1c1.2,0,2.4-0.1,3.5,0.4c0.2,0.1,0.4,0.2,0.5,0.3c0.3,0.6,0.6,1.2,0.8,1.8c0.2,0.9,0.4,1.8,0.5,2.7
		c0-0.9,0-1.8,0-2.8C46.9,18.6,46.8,18.5,46.8,18.4z"/>
	<path class="st0" d="M4.2,20.9c0-0.5,0-1,0-1.5c0-0.7,0.1-1.2,0.9-1.4c0.3-0.1,0.6-0.3,0.9-0.4c-0.1-0.1-0.2-0.2-0.3-0.2
		c-0.4,0.2-0.8,0.3-1.1,0.5C4.3,18,4,18.3,4,18.5c-0.1,0.7-0.2,1.5-0.1,2.3c0.1,0.9,0.5,1.8,1.5,1.5c-0.1-0.1-0.2-0.1-0.3-0.2
		C4.5,21.9,4.2,21.5,4.2,20.9z"/>
	<path class="st0" d="M22,37.3c0-0.1,0-0.1,0-0.2c-2.4,0-4.8,0-7.2,0c-0.1,0-0.3,0.1-0.4,0.1c0,0,0,0,0,0.1c1.3,0,2.5,0,3.8,0
		C19.4,37.3,20.7,37.3,22,37.3z"/>
	<path class="st0" d="M27.8,21.9C28,22,28.3,22,28.6,22c1,0,2,0,3.2,0c-0.4-0.1-0.7-0.3-1-0.3c-0.7,0-1.3,0.1-2,0.1
		c-0.7,0-0.9-0.2-1-0.9c0-0.1,0-0.2,0-0.4c-0.1,0.1-0.2,0.2-0.3,0.2c0,0.2,0,0.5,0,0.7C27.5,21.6,27.6,21.8,27.8,21.9z"/>
	<path class="st0" d="M46.7,22.5c-0.2,1.2-0.7,2.2-2.1,2.4c-0.3,0-0.6,0.3-0.9,0.5c0,0,0.1,0.1,0.1,0.1c1-0.2,1.9-0.6,2.6-1.2
		c0.4-0.4,0.4-1.3,0.6-1.9c-0.1,0-0.1,0-0.2,0C46.7,22.4,46.7,22.4,46.7,22.5z"/>
	<path class="st0" d="M36.9,16.3c0,0,0,0.1,0,0.1c1.3,0.1,1.6,0,1.6-0.6c-0.4-0.1-0.7-0.1-1.1-0.3c-0.7-0.2-0.7-0.2-0.9,0
		c0.4,0.1,0.8,0.3,1.3,0.4c0,0.1,0,0.1,0,0.2C37.4,16.2,37.1,16.3,36.9,16.3z"/>
	<path class="st0" d="M17.6,13.6c0,0.4,0.1,0.8,0.1,1.3c0.1,0,0.1,0,0.2,0c0-0.6,0.1-1.3,0-1.9c-0.1-0.4-0.4-0.7-0.7-1
		c0,0-0.2,0.1-0.4,0.1C17.5,12.4,17.6,13,17.6,13.6z"/>
	<path class="st0" d="M24.3,13.4c0.1-0.3,0.1-0.6,0.1-0.9c0-0.5,0.1-0.9,0.6-1.2c0.2-0.1,0.4-0.4,0.6-0.7
		C24.7,10.4,24,11.9,24.3,13.4z"/>
</g>
</svg>
